<?xml version="1.0" encoding="UTF-8"?>
<!DOCTYPE svg PUBLIC "-//W3C//DTD SVG 1.1//EN" "http://www.w3.org/Graphics/SVG/1.1/DTD/svg11.dtd">
<!-- Creator: CorelDRAW 2018 (64-Bit) -->
<svg xmlns="http://www.w3.org/2000/svg" xml:space="preserve" width="45.4305mm" height="39.8883mm" version="1.1" style="shape-rendering:geometricPrecision; text-rendering:geometricPrecision; image-rendering:optimizeQuality; fill-rule:evenodd; clip-rule:evenodd"
viewBox="0 0 1015.91 891.98"
 xmlns:xlink="http://www.w3.org/1999/xlink">
 <defs>
  <style type="text/css">
   <![CDATA[
    .fil0 {fill:#2B2A29}
   ]]>
  </style>
 </defs>
 <g id="Katman_x0020_1">
  <metadata id="CorelCorpID_0Corel-Layer"/>
  <path class="fil0" d="M267.98 661.38l42.34 73.86 -1.27 79.28c0,0 -33.11,-69.09 -70.04,-56.99 -36.93,12.1 -89.15,30.56 -89.15,30.56 0,0 -22.29,6.05 -65.59,-9.55l152.5 -80.23 -7.64 -20.38 38.84 -16.55zm479.95 0l-42.34 73.86 1.27 79.28c0,0 33.11,-69.09 70.04,-56.99 36.93,12.1 89.15,30.56 89.15,30.56 0,0 22.29,6.05 65.59,-9.55l-152.5 -80.23 7.64 -20.38 -38.84 -16.55zm-747.93 -592.95l392.8 128.74 0 16c0,0 -32.79,24.75 -50.3,46.4l-265.84 -76.73c0,0 -15.92,-5.73 -22.29,-16.24 -6.6,-10.49 -52.91,-85.58 -54.36,-98.18zm324.56 208.99l-238.31 -64 31.2 49.67c0,0 8.6,7.01 23.24,10.83 14.65,3.82 146.77,38.21 146.77,38.21 0,0 9.24,2.23 14.96,-5.25 3.64,-7.76 21.01,-29.6 22.13,-29.45zm-38.62 56.45l-141.03 -29.63c0,0 -9,-0.76 -4.78,8.6 2.86,6.34 9.37,18.3 13.33,25.38 4.58,8.2 6.23,7.67 16.51,10.12 26.04,6.2 79.02,12.43 93.38,14.48 0,0 9.07,0.8 12.42,-4.94 3.34,-5.73 10.17,-24.02 10.17,-24.02zm729.97 -265.45l-392.8 128.74 0 16c0,0 32.79,24.75 50.3,46.4l265.85 -76.73c0,0 15.92,-5.73 22.29,-16.24 6.59,-10.49 52.91,-85.58 54.36,-98.18zm-324.56 208.99l238.31 -64 -31.2 49.67c0,0 -8.6,7.01 -23.24,10.83 -14.65,3.82 -146.77,38.21 -146.77,38.21 0,0 -9.23,2.23 -14.96,-5.25 -3.63,-7.76 -21.01,-29.6 -22.12,-29.45zm38.62 56.45l141.03 -29.63c0,0 9,-0.76 4.77,8.6 -2.86,6.34 -9.37,18.3 -13.32,25.38 -4.58,8.2 -6.23,7.67 -16.51,10.12 -26.04,6.2 -79.02,12.43 -93.38,14.48 0,0 -9.07,0.8 -12.42,-4.94 -3.34,-5.73 -10.17,-24.02 -10.17,-24.02zm-263.56 -333.88l83.1 0 57.47 64.15c-66.01,0 -132.02,0 -198.03,0l57.47 -64.15zm29.4 289.47l24.31 0c4.01,0 7.29,3.28 7.29,7.29l0 22.08c11.88,2.06 23.12,5.98 33.42,11.44l13.53 -17.45c2.46,-3.17 7.06,-3.75 10.23,-1.29l19.21 14.9c3.17,2.46 3.75,7.06 1.29,10.23l-13.54 17.46c6.69,7.34 12.42,15.57 17,24.48l21.08 -6.55c3.83,-1.19 7.93,0.97 9.12,4.8l7.21 23.22c1.19,3.83 -0.97,7.94 -4.8,9.13l-21.09 6.55c0.6,4.73 0.91,9.56 0.91,14.45 0,4.92 -0.32,9.77 -0.93,14.53l21.09 6.57c3.83,1.19 5.99,5.3 4.79,9.13l-7.22 23.21c-1.19,3.83 -5.3,5.99 -9.13,4.79l-21.08 -6.56c-4.53,8.79 -10.17,16.92 -16.75,24.18l13.59 17.42c2.47,3.16 1.9,7.77 -1.27,10.23l-19.17 14.95c-3.16,2.47 -7.77,1.9 -10.23,-1.27l-13.58 -17.41c-10.37,5.54 -21.71,9.51 -33.7,11.58l0 22.08c0,4.01 -3.28,7.29 -7.29,7.29l-24.31 0c-4.01,0 -7.29,-3.28 -7.29,-7.29l0 -22.08c-11.88,-2.06 -23.12,-5.98 -33.42,-11.44l-13.53 17.45c-2.46,3.17 -7.06,3.75 -10.23,1.29l-19.21 -14.9c-3.17,-2.46 -3.75,-7.06 -1.3,-10.23l13.54 -17.46c-6.69,-7.34 -12.42,-15.57 -17,-24.48l-21.08 6.55c-3.83,1.19 -7.94,-0.97 -9.13,-4.8l-7.21 -23.22c-1.19,-3.83 0.97,-7.94 4.8,-9.13l21.09 -6.55c-0.6,-4.73 -0.91,-9.56 -0.91,-14.45 0,-4.92 0.32,-9.77 0.93,-14.53l-21.09 -6.56c-3.83,-1.19 -5.99,-5.3 -4.79,-9.13l7.22 -23.21c1.19,-3.83 5.3,-5.99 9.13,-4.79l21.08 6.56c4.53,-8.79 10.17,-16.92 16.75,-24.18l-13.59 -17.43c-2.47,-3.16 -1.9,-7.77 1.27,-10.23l19.17 -14.95c3.16,-2.47 7.77,-1.9 10.24,1.27l13.58 17.41c10.38,-5.54 21.72,-9.5 33.7,-11.58l0 -22.08c0,-4.01 3.28,-7.29 7.29,-7.29zm12.15 69.43c39.38,0 71.3,31.92 71.3,71.31 0,39.38 -31.92,71.31 -71.3,71.31 -39.38,0 -71.31,-31.92 -71.31,-71.31 0,-39.38 31.93,-71.31 71.31,-71.31zm-0 -96.67c93.47,0 169.23,75.77 169.23,169.23 0,93.47 -75.77,169.24 -169.23,169.24 -93.47,0 -169.23,-75.77 -169.23,-169.24 0,-93.47 75.77,-169.23 169.23,-169.23zm-83.35 -184.92l166.7 0 0 184.52c48.38,23.82 85.09,67.73 99.25,120.84l39.17 -4.68c0.96,-0.11 1.39,0.86 1.75,1.75 9.19,22.55 7.79,45.1 0,67.65 -0.31,0.91 -0.79,1.86 -1.75,1.75l-33.32 -3.6c-1.1,14.92 -3.93,29.35 -8.3,43.11l30.7 13.15c0.89,0.38 0.77,1.44 0.64,2.39 -3.31,24.12 -15.8,42.95 -33.83,58.59 -0.72,0.63 -1.61,1.21 -2.39,0.64l-24.56 -17.95c-23.83,31.46 -57.28,55.22 -95.97,66.91l11.07 56.27 -131.63 0 11.35 -56.19c-38.44,-11.56 -71.73,-35.03 -95.57,-66.12l-23.36 17.08c-0.78,0.57 -1.66,-0.01 -2.39,-0.64 -18.02,-15.63 -30.51,-34.46 -33.83,-58.59 -0.13,-0.95 -0.24,-2.01 0.64,-2.39l29.05 -12.44c-4.49,-13.96 -7.41,-28.64 -8.52,-43.81l-33.32 3.6c-0.96,0.11 -1.44,-0.84 -1.75,-1.75 -7.79,-22.55 -9.19,-45.1 0,-67.65 0.36,-0.89 0.79,-1.86 1.75,-1.75l39.17 4.68c14.16,-53.11 50.87,-97.02 99.25,-120.84l0 -184.52zm-20.43 533.86l0 88.83 207.57 0 0 -88.83c95.19,-15.4 169.09,-74.89 194.32,-200.58l67.18 22.76c-1.96,10.45 -5.15,20.91 -9.87,31.36 0,0 -12.89,-3.66 -18.78,-5.73 -11.74,-4.13 -10.45,5.07 -13.05,14.33 -1.43,5.09 1.91,6.05 1.91,6.05l24.83 13.69 -16.87 30.72c0,0 -11.3,-6.84 -16.87,-10.83 -5.57,-3.98 -9.87,0 -9.87,0 0,0 -5.41,8.12 -7.96,12.42 -2.55,4.3 2.07,8.6 2.07,8.6l18.78 15.6 -30.57 39.48c0,0 -16.32,-14.56 -19.9,-17.99 -3.58,-3.42 -8.04,1.27 -8.04,1.27 -4.86,5.33 -21.97,23.4 -28.9,29.21 -6.93,5.81 -4.06,9.55 -4.06,9.55l6.21 8.67c-20.22,25.79 -62.57,44.6 -73.07,49.53 -10.51,4.94 -3.18,23.69 -3.18,23.69l38.68 0c-36.77,51.15 -58.26,102.3 -87.39,153.46l-25.31 0 0 -30.72c-20.85,0 -23.24,10.51 -23.24,10.51l-11.15 65.75 -32.16 0 0 -83.1 -35.02 0 0 83.1 -32.16 0 -11.15 -65.75c0,0 -2.39,-10.51 -23.24,-10.51l0 30.72 -25.31 0c-29.13,-51.15 -50.62,-102.3 -87.39,-153.46l38.68 0c0,0 7.33,-18.76 -3.18,-23.69 -10.51,-4.93 -52.86,-23.75 -73.07,-49.53l6.21 -8.67c0,0 2.86,-3.74 -4.06,-9.55 -6.93,-5.81 -24.04,-23.88 -28.89,-29.21 0,0 -4.46,-4.7 -8.04,-1.27 -3.58,3.42 -19.9,17.99 -19.9,17.99l-30.57 -39.48 18.78 -15.6c0,0 4.62,-4.3 2.07,-8.6 -2.55,-4.3 -7.96,-12.42 -7.96,-12.42 0,0 -4.3,-3.98 -9.87,0 -5.57,3.98 -16.87,10.83 -16.87,10.83l-16.87 -30.72 24.83 -13.69c0,0 3.34,-0.95 1.91,-6.05 -2.6,-9.26 -1.31,-18.45 -13.05,-14.33 -5.89,2.07 -18.78,5.73 -18.78,5.73 -4.72,-10.45 -7.91,-20.91 -9.87,-31.36l67.18 -22.76c25.23,125.69 99.13,185.18 194.32,200.58z"/>
 </g>
</svg>
