<?xml version="1.0" encoding="UTF-8"?>
<!DOCTYPE svg PUBLIC "-//W3C//DTD SVG 1.1//EN" "http://www.w3.org/Graphics/SVG/1.1/DTD/svg11.dtd">
<!-- Creator: CorelDRAW 2018 (64-Bit) -->
<svg xmlns="http://www.w3.org/2000/svg" xml:space="preserve" width="54.0248mm" height="49.8604mm" version="1.1" style="shape-rendering:geometricPrecision; text-rendering:geometricPrecision; image-rendering:optimizeQuality; fill-rule:evenodd; clip-rule:evenodd"
viewBox="0 0 800.07 738.4"
 xmlns:xlink="http://www.w3.org/1999/xlink">
 <defs>
  <style type="text/css">
   <![CDATA[
    .fil0 {fill:#2B2A29}
   ]]>
  </style>
 </defs>
 <g id="Katman_x0020_1">
  <metadata id="CorelCorpID_0Corel-Layer"/>
  <path class="fil0" d="M612.53 21.84c0,0 -81.09,56.14 -68.61,140.97 0,0 12.06,-22.25 26.2,-23.5 0,0 -3.74,34.1 -15.18,46.16 -11.43,12.06 -2.29,22.25 -2.29,22.25 0,0 1.25,104.58 -104.79,167.79l19.54 84.41 27.03 -59.05c2.96,-6.47 16.22,-24.53 40.75,-17.46 24.53,7.07 82.13,78.18 82.13,78.18l-39.09 -89.41c0,0 10.6,-26.61 40.75,-43.87 30.15,-17.26 65.7,-6.86 65.7,-6.86 0,0 -31.4,-21.42 -34.31,-35.97 0,0 22.87,-23.29 24.33,-62.17 0,0 -46.37,38.67 -68.61,43.66 -22.25,4.99 -21,23.7 -21,23.7 0,0 -40.54,38.05 -77.14,48.03 0,0 71.11,-61.13 88.16,-109.37 0,0 7.69,-25.99 34.72,-23.5 27.03,2.5 68.2,3.12 68.2,3.12l-37.63 -26.2c0,0 -13.1,-16.01 10.39,-21 23.5,-4.99 72.15,-16.63 72.15,-16.63l-51.15 -11.44c0,0 -25.57,-11.44 -16.22,-32.85 3.46,-7.91 17.89,-25.82 38.91,-42.64 35.88,-28.7 84.59,-58.2 84.59,-58.2l-152.2 64.04c0,0 -47.41,22.46 -48.65,-5.41 -1.25,-27.86 13.3,-36.79 13.3,-36.79zm54.06 313.11c0,0 -38.47,-6.24 -61.54,24.74 0,0 -6.65,7.38 5.09,10.08 11.75,2.7 44.29,23.08 73.4,94.19 0,0 -27.03,-97.72 -16.95,-129.01zm-71.42 120.07c0,0 -34.31,-43.25 -52.81,-51.36 3.22,5.87 15.49,54.37 0.93,85.56 -14.55,31.19 -19.92,36.76 -20.95,39.25 -0.03,0.08 1.83,1.49 2.17,1.1 6.05,-7.22 50.61,-79.38 70.66,-74.55zm-126.34 -370.1c0,0 -8.32,18.71 0,54.27 0,0 -29.11,38.46 -36.59,76.3 0,0 -9.57,-61.13 36.59,-130.57zm-281.28 -63.09c0,0 81.09,56.14 68.61,140.97 0,0 -12.06,-22.25 -26.2,-23.5 0,0 3.75,34.1 15.18,46.16 11.43,12.06 2.29,22.25 2.29,22.25 0,0 -1.25,104.58 104.79,167.79l-19.54 84.41 -27.03 -59.05c-2.96,-6.47 -16.22,-24.53 -40.75,-17.46 -24.53,7.07 -82.13,78.18 -82.13,78.18l39.09 -89.41c0,0 -10.61,-26.61 -40.75,-43.87 -30.15,-17.26 -65.7,-6.86 -65.7,-6.86 0,0 31.39,-21.42 34.31,-35.97 0,0 -22.87,-23.29 -24.33,-62.17 0,0 46.37,38.67 68.61,43.66 22.25,4.99 21,23.7 21,23.7 0,0 40.54,38.05 77.14,48.03 0,0 -71.11,-61.13 -88.16,-109.37 0,0 -7.69,-25.99 -34.72,-23.5 -27.03,2.5 -68.2,3.12 -68.2,3.12l37.63 -26.2c0,0 13.1,-16.01 -10.4,-21 -23.5,-4.99 -72.15,-16.63 -72.15,-16.63l51.15 -11.44c0,0 25.57,-11.44 16.22,-32.85 -3.46,-7.91 -17.89,-25.82 -38.91,-42.64 -35.88,-28.7 -84.59,-58.2 -84.59,-58.2l152.19 64.04c0,0 47.41,22.46 48.65,-5.41 1.25,-27.86 -13.3,-36.79 -13.3,-36.79zm-54.06 313.11c0,0 38.47,-6.24 61.54,24.74 0,0 6.65,7.38 -5.09,10.08 -11.75,2.7 -44.29,23.08 -73.4,94.19 0,0 27.03,-97.72 16.94,-129.01zm71.42 120.07c0,0 34.31,-43.25 52.81,-51.36 -3.22,5.87 -15.49,54.37 -0.93,85.56 14.55,31.19 19.92,36.76 20.95,39.25 0.03,0.08 -1.83,1.49 -2.17,1.1 -6.05,-7.22 -50.61,-79.38 -70.66,-74.55zm126.34 -370.1c0,0 8.32,18.71 0,54.27 0,0 29.11,38.46 36.6,76.3 0,0 9.56,-61.13 -36.6,-130.57zm68.8 -3.75c0,0 -14.12,35.59 -25.78,53.02 -11.66,17.43 17.88,56.14 16.63,150.12 0,0 -0.62,10.4 -8.32,22.46 8.9,15.88 17.29,59.28 17.46,59.85 0.11,-0.56 8.57,-43.96 17.46,-59.85 -7.69,-12.06 -8.32,-22.46 -8.32,-22.46 -1.25,-93.98 28.29,-132.69 16.63,-150.12 -11.66,-17.43 -25.78,-53.02 -25.78,-53.02zm-22.46 285.27c-52.91,-10.47 -92.81,-57.21 -92.81,-113.31 0,-39.58 19.86,-74.5 50.13,-95.31 2.09,-1.2 5.04,0.4 2.39,3.46 -11.51,14.41 -18.42,32.86 -18.42,52.97 0,38.38 25.17,70.7 59.46,80.47 -1.14,2.59 -2.46,5.03 -3.7,6.98l-3.03 4.76 2.76 4.92c12.25,21.88 19.93,65.12 25.69,91.42 6.54,-25.07 14.76,-71.91 25.69,-91.42l2.76 -4.92 -3.03 -4.76c-1.24,-1.95 -2.55,-4.39 -3.7,-6.98 34.29,-9.77 59.46,-42.09 59.46,-80.47 0,-20.11 -6.91,-38.56 -18.42,-52.97 -2.65,-3.06 0.3,-4.66 2.39,-3.46 30.27,20.82 50.13,55.74 50.13,95.31 0,56.1 -39.9,102.85 -92.81,113.32 -0.32,7.87 -0.6,20.57 -0.6,40.93 0,47.16 31.69,51.77 31.69,51.77 -14.28,74.46 -53.52,279.04 -53.56,279.24 -0.04,-0.2 -39.27,-204.78 -53.56,-279.24 0,0 31.69,-4.62 31.69,-51.77 0,-20.37 -0.28,-33.07 -0.6,-40.94z"/>
 </g>
</svg>
