<?xml version="1.0" encoding="UTF-8"?>
<!DOCTYPE svg PUBLIC "-//W3C//DTD SVG 1.1//EN" "http://www.w3.org/Graphics/SVG/1.1/DTD/svg11.dtd">
<!-- Creator: CorelDRAW 2018 (64-Bit) -->
<svg xmlns="http://www.w3.org/2000/svg" xml:space="preserve" width="33.2484mm" height="39.8883mm" version="1.1" style="shape-rendering:geometricPrecision; text-rendering:geometricPrecision; image-rendering:optimizeQuality; fill-rule:evenodd; clip-rule:evenodd"
viewBox="0 0 3324.84 3988.83"
 xmlns:xlink="http://www.w3.org/1999/xlink">
 <defs>
  <style type="text/css">
   <![CDATA[
    .fil0 {fill:#2B2A29}
   ]]>
  </style>
 </defs>
 <g id="Katman_x0020_1">
  <metadata id="CorelCorpID_0Corel-Layer"/>
  <path class="fil0" d="M850.08 327.73c-103.92,112.17 -195.69,-4.84 -108.6,-110.98 69.67,-84.92 155.64,-19.53 194.21,56.03 40.93,80.2 43.68,185.03 43.68,283.69l131.77 0c0,-380.41 -59.67,-555.69 -290.9,-555.69 -143.37,3.64 -249.87,92.07 -249.87,234.95 0,118.48 86.15,215.07 192.68,215.07 74.26,0 100.82,-53.24 87.03,-123.07zm1624.68 0c103.91,112.17 195.68,-4.84 108.59,-110.98 -69.67,-84.92 -155.64,-19.53 -194.21,56.03 -40.93,80.2 -43.67,185.03 -43.67,283.69l-131.78 0c0,-380.41 59.68,-555.69 290.91,-555.69 143.37,3.64 249.87,92.07 249.87,234.95 0,118.48 -86.16,215.07 -192.69,215.07 -74.26,0 -100.81,-53.24 -87.02,-123.07zm-1091.81 -286.7c44.63,0 80.81,36.18 80.81,80.81 0,44.63 -36.18,80.81 -80.81,80.81 -44.62,0 -80.8,-36.18 -80.8,-80.81 0,-44.63 36.18,-80.81 80.8,-80.81zm558.93 0c44.63,0 80.81,36.18 80.81,80.81 0,44.63 -36.18,80.81 -80.81,80.81 -44.62,0 -80.8,-36.18 -80.8,-80.81 0,-44.63 36.18,-80.81 80.8,-80.81zm-860.32 706.24l-114.37 0c-60.74,362.97 -967.19,898.81 -967.19,1603.68 0,1037.83 1527.81,672.79 1527.81,1203.98 -143.38,-146.28 -221.28,10.77 -221.28,64.64 0,98.32 236.29,249.81 355.89,369.26 119.6,-119.45 355.88,-270.94 355.88,-369.26 0,-53.87 -77.9,-210.92 -221.28,-64.64 0,-531.19 1527.82,-166.15 1527.82,-1203.98 0,-704.87 -906.46,-1240.71 -967.19,-1603.68l-114.37 0c1.61,191.47 80.13,375.56 243.84,558.72 230.16,257.52 360.02,332.65 401.76,765.84 23.54,244.29 -43.1,463.29 -209.62,537.62 -58.01,39.36 -69.4,-25.07 -62.15,-57.19 49.72,-315.76 -210.52,-514.67 -390.37,-514.67 -154.36,0 -332.55,96.56 -332.55,336.9 0,170.2 87.74,262.31 200.77,262.31 130.94,0 235.57,-79.42 235.57,-220.66 0,-113.65 -79.46,-153.53 -124.32,-153.53 -46.83,0 -94.48,12.85 -94.48,74.28 0,25.28 27.15,61.85 57.19,61.85 53.25,0 33.78,-62.16 59.05,-62.16 56.04,0 56.33,123.7 -73.97,123.7 -61.9,2.15 -132.4,-37.13 -132.4,-104.42 0,-106.96 60.37,-184.61 194.56,-192.08 128.45,0 226.89,119.29 226.25,262.93 0,452.1 -498.5,518.82 -708.6,830.44 38.09,-235.83 133.17,-412.05 244.28,-571.54 -186.84,-185.74 -193.09,-430.33 82.14,-721.33 -265.21,0 -530.41,0 -795.62,0 275.23,291 268.98,535.59 82.14,721.33 111.1,159.49 206.19,335.71 244.27,571.54 -210.1,-311.62 -708.6,-378.34 -708.6,-830.44 -0.63,-143.64 97.8,-262.93 226.25,-262.93 134.19,7.47 194.56,85.12 194.56,192.08 0,67.29 -70.49,106.57 -132.39,104.42 -130.3,0 -130.02,-123.7 -73.98,-123.7 25.28,0 5.81,62.16 59.05,62.16 30.05,0 57.19,-36.57 57.19,-61.85 0,-61.43 -47.65,-74.28 -94.48,-74.28 -44.86,0 -124.32,39.88 -124.32,153.53 0,141.24 104.63,220.66 235.57,220.66 113.03,0 200.77,-92.11 200.77,-262.31 0,-240.34 -178.18,-336.9 -332.55,-336.9 -179.84,0 -440.09,198.91 -390.36,514.67 7.25,32.12 -4.14,96.55 -62.16,57.19 -166.51,-74.33 -233.15,-293.33 -209.61,-537.62 41.74,-433.19 171.59,-508.32 401.75,-765.84 163.71,-183.16 242.24,-367.25 243.85,-558.72zm-124.22 -155.84l315.3 0 0 -293.7 73 0 0 293.7 141.27 0 0 -293.7 72.99 0 0 293.7 205.04 0 0 -293.7 72.99 0 0 293.7 141.27 0 0 -293.7 73 0 0 293.7 315.3 0c11.69,-13.87 29.18,-22.69 48.74,-22.69 35.19,0 63.71,28.53 63.71,63.72 0,35.18 -28.52,63.71 -63.71,63.71 -19.56,0 -37.05,-8.82 -48.74,-22.69l-315.3 0 0 1219.23 -73 0 0 -1219.23 -141.27 0 0 1219.23 -72.99 0 0 -1219.23 -205.04 0 0 1219.23 -72.99 0 0 -1219.23 -141.27 0 0 1219.23 -73 0 0 -1219.23 -315.3 0c-11.69,13.87 -29.18,22.69 -48.74,22.69 -35.19,0 -63.71,-28.53 -63.71,-63.71 0,-35.19 28.52,-63.72 63.71,-63.72 19.56,0 37.05,8.82 48.74,22.69zm705.08 -591.43c60.07,0 108.77,48.7 108.77,108.77 0,60.08 -48.7,108.78 -108.77,108.78 -60.08,0 -108.78,-48.7 -108.78,-108.78 0,-60.07 48.7,-108.77 108.78,-108.77z"/>
 </g>
</svg>
