<?xml version="1.0" encoding="UTF-8"?>
<!DOCTYPE svg PUBLIC "-//W3C//DTD SVG 1.1//EN" "http://www.w3.org/Graphics/SVG/1.1/DTD/svg11.dtd">
<!-- Creator: CorelDRAW 2018 (64-Bit) -->
<svg xmlns="http://www.w3.org/2000/svg" xml:space="preserve" width="29.5333mm" height="39.8883mm" version="1.1" style="shape-rendering:geometricPrecision; text-rendering:geometricPrecision; image-rendering:optimizeQuality; fill-rule:evenodd; clip-rule:evenodd"
viewBox="0 0 165.6 223.66"
 xmlns:xlink="http://www.w3.org/1999/xlink">
 <defs>
  <style type="text/css">
   <![CDATA[
    .fil0 {fill:#2B2A29}
   ]]>
  </style>
 </defs>
 <g id="Katman_x0020_1">
  <metadata id="CorelCorpID_0Corel-Layer"/>
  <path class="fil0" d="M25.22 222.47c0,0 3.36,-9.63 7.11,-16.32 0,0 -8.93,-6.62 -12.37,-15.59 0,0 -15.97,0.56 -19.97,-1.05 0,0 15.62,-4.27 18.15,-9.11 0,0 -0.14,-4.38 0.67,-6.45 0,0 -9.74,-8.37 -10.3,-14.4 0,0 6.69,4.31 12.19,5.71 0,0 1.65,-6.73 3.61,-9 0,0 4.1,6.41 1.72,10.61 0,0 3.92,5.74 9.28,8.41 0,0 -12.3,-1.96 -10.16,2.77 2.14,4.73 9.46,6.13 16.64,0.03 0,0 3.33,3.12 -0.28,6.62 0,0 2.94,6.8 9.11,10.09 6.17,3.29 8.83,6.66 8.97,11.14 0,0 7.99,0 9.88,7.15 1.89,7.15 -3.5,10.58 -3.5,10.58 -3.89,-8.6 -18.25,-16.05 -27.49,-11.88 -3.33,1.5 -7.76,4.58 -13.25,10.69zm30.2 -17.31c0,0 -1.58,-2.84 -3.85,-4.87 -2.28,-2.03 -5.43,-4.17 -7.5,-2.35 -2.07,1.82 -2.28,4.2 2.17,5.92 4.45,1.72 9.18,1.3 9.18,1.3zm-25.47 -15.8c0,0 2,4.55 8.86,8.97 0,0 2.45,-1.86 2.7,-4.2 0.25,-2.39 -3.89,-6.97 -7.01,-6.62 -1.15,0.13 -2.65,0.64 -4.55,1.85zm110.42 33.1c0,0 -3.36,-9.63 -7.11,-16.32 0,0 8.93,-6.62 12.37,-15.59 0,0 15.97,0.56 19.97,-1.05 0,0 -15.62,-4.27 -18.15,-9.11 0,0 0.14,-4.38 -0.67,-6.45 0,0 9.74,-8.37 10.3,-14.4 0,0 -6.69,4.31 -12.19,5.71 0,0 -1.65,-6.73 -3.61,-9 0,0 -4.1,6.41 -1.72,10.61 0,0 -3.92,5.74 -9.28,8.41 0,0 12.3,-1.96 10.16,2.77 -2.14,4.73 -9.46,6.13 -16.64,0.03 0,0 -3.33,3.12 0.28,6.62 0,0 -2.94,6.8 -9.11,10.09 -6.16,3.29 -8.83,6.66 -8.97,11.14 0,0 -7.99,0 -9.88,7.15 -1.89,7.15 3.5,10.58 3.5,10.58 3.89,-8.6 18.25,-16.05 27.49,-11.88 3.33,1.5 7.76,4.58 13.25,10.69zm-30.2 -17.31c0,0 1.58,-2.84 3.85,-4.87 2.28,-2.03 5.43,-4.17 7.5,-2.35 2.07,1.82 2.28,4.2 -2.17,5.92 -4.45,1.72 -9.18,1.3 -9.18,1.3zm25.47 -15.8c0,0 -2,4.55 -8.86,8.97 0,0 -2.45,-1.86 -2.7,-4.2 -0.25,-2.39 3.89,-6.97 7.01,-6.62 1.15,0.13 2.65,0.64 4.55,1.85zm-63.74 -35.87c0,0 0.14,3.24 -9.39,1.98 0,0 -2.33,-0.26 -2.19,3.45 0.14,3.71 7.39,-0.7 10.86,1.72 3.47,2.42 5.89,5.64 5.89,5.64 0,0 -0.39,-4.94 -5.17,-12.79zm21.79 0c0,0 -0.14,3.24 9.39,1.98 0,0 2.33,-0.26 2.19,3.45 -0.14,3.71 -7.39,-0.7 -10.86,1.72 -3.47,2.42 -5.89,5.64 -5.89,5.64 0,0 0.39,-4.94 5.17,-12.79zm-10.9 -153.49c-6.24,14.08 -11.92,28.37 -15.43,43.46 7.88,-0.51 5.61,21 5.61,31.59 0,12.5 0.06,27.63 -4.29,36.99 5.07,4.81 2.34,8.67 -0.2,13.93 -0.32,0.65 -0.47,1.32 -0.47,2.13 0,1.69 1.88,3.41 2.21,5.42 0.37,2.31 -0.62,2.69 -2.5,1.68 -3.59,-1.94 -3.46,-7.53 -3.88,-12.58 -4.33,4.14 -7,10.06 -8.99,16.7 -1.71,4.15 -8.47,4.41 -8.47,-0.53 0,-2.09 1.3,-3.48 4.15,-4.32 5.55,-2.12 8.7,-9.26 8.93,-13.9 -4.8,6.25 -9.67,9.15 -14.66,6.98 -2.07,-0.9 -2.02,-1.22 -1.01,-3.36 2.29,-4.86 8.78,-7.98 19.06,-10.11 -7.51,-6.94 -11.98,-13.69 -3.15,-15.65 -8.2,-1.51 -16.65,-8.25 -25.16,-16.46l9.87 19.68c1.48,2.67 -0.25,9.07 -4.5,6.07 -16.73,-10.85 -15.6,-29.72 -8.64,-40.81 -10.45,7.51 -11.45,20.48 -7.88,36.08 2.34,8.59 1.28,11.13 1.93,16.7 0.18,1.16 1.77,2.17 2.23,3.3 0.8,1.96 -2.15,2.93 -3.46,2.04 -6.93,-4.72 -7.28,-8.36 -18.79,-7.93 8.74,5.54 16.17,11.8 16.64,21.87 0.09,2.85 -0.93,4.74 1.66,8.82 2.57,-2.3 5.23,-3.66 8.03,-3.47 -4.78,12.4 -1.16,19.36 6.36,23.82 -5.2,-6.51 -1.18,-16.47 4.03,-16.93 1.96,-0.09 3.47,1.22 4.5,4.09 -1.79,7.53 2.29,10.78 9.69,11.62 0.11,1.54 -0.28,3.02 -1.23,4.44 2.84,0.65 4.5,3.2 4.85,7.82 4.28,-4.65 7.87,-7.66 10.37,-8.06 4.2,-0.67 4.29,5.47 2.19,8.59 2.44,2.37 4.18,4.97 4.2,8.12l3.39 0.13 0 13.71c-0.18,2.12 -0.96,3.93 -1.71,5.76 -0.82,1.99 -1.8,2.5 -0.2,3.95 2.71,2.46 5.15,10.77 4.76,12.14 -0.33,-0.63 1.83,-8.69 4.76,-12.14 1.4,-1.65 0.62,-1.96 -0.2,-3.95 -0.75,-1.83 -1.53,-3.64 -1.71,-5.76l0 -13.71 3.39 -0.13c0.02,-3.15 1.77,-5.74 4.2,-8.12 -2.1,-3.12 -2.01,-9.26 2.19,-8.59 2.49,0.4 6.09,3.41 10.37,8.06 0.35,-4.62 2,-7.17 4.85,-7.82 -0.94,-1.42 -1.33,-2.9 -1.23,-4.44 7.4,-0.83 11.48,-4.09 9.69,-11.62 1.02,-2.87 2.54,-4.18 4.5,-4.09 5.21,0.46 9.23,10.42 4.03,16.93 7.52,-4.46 11.15,-11.42 6.36,-23.82 2.8,-0.19 5.46,1.17 8.03,3.47 2.6,-4.08 1.57,-5.96 1.66,-8.82 0.47,-10.07 7.9,-16.33 16.64,-21.87 -11.51,-0.43 -11.87,3.22 -18.79,7.93 -1.31,0.89 -4.26,-0.08 -3.46,-2.04 0.46,-1.13 2.05,-2.14 2.23,-3.3 0.64,-5.57 -0.41,-8.11 1.93,-16.7 3.57,-15.61 2.57,-28.57 -7.88,-36.08 6.95,11.09 8.09,29.96 -8.64,40.81 -4.24,3 -5.97,-3.41 -4.5,-6.07l9.87 -19.68c-8.51,8.21 -16.96,14.96 -25.16,16.46 8.83,1.96 4.36,8.7 -3.15,15.65 10.27,2.12 16.76,5.25 19.06,10.11 1.01,2.14 1.06,2.45 -1.01,3.36 -4.98,2.17 -9.86,-0.73 -14.66,-6.98 0.23,4.63 3.39,11.77 8.93,13.9 2.84,0.84 4.15,2.23 4.15,4.32 0,4.93 -6.75,4.67 -8.47,0.53 -2,-6.63 -4.66,-12.56 -8.99,-16.7 -0.42,5.06 -0.29,10.65 -3.88,12.58 -1.88,1.02 -2.88,0.63 -2.5,-1.68 0.32,-2.01 2.21,-3.73 2.21,-5.42 0,-0.8 -0.15,-1.47 -0.47,-2.13 -2.54,-5.26 -5.28,-9.12 -0.2,-13.93 -4.35,-9.35 -4.29,-24.48 -4.29,-36.99 0,-10.59 -2.28,-32.09 5.61,-31.59 -3.51,-15.09 -9.19,-29.38 -15.43,-43.46zm0 165.34c-1.79,-4.08 -3.89,-8.05 -6.29,-11.89 5.44,-5.48 5.17,-25.67 5.59,-44.09 0.47,0 0.93,0 1.4,0 0.42,18.42 0.15,38.61 5.59,44.09 -2.4,3.85 -4.5,7.81 -6.29,11.89zm-4.02 -11.74c1.45,2.39 2.79,4.84 4.02,7.35 1.23,-2.51 2.58,-4.96 4.02,-7.35 -2.68,-3.8 -3.53,-7.25 -4.02,-11.81 -0.49,4.56 -1.34,8.01 -4.02,11.81z"/>
 </g>
</svg>
