<?xml version="1.0" encoding="UTF-8"?>
<!DOCTYPE svg PUBLIC "-//W3C//DTD SVG 1.1//EN" "http://www.w3.org/Graphics/SVG/1.1/DTD/svg11.dtd">
<!-- Creator: CorelDRAW 2018 (64-Bit) -->
<svg xmlns="http://www.w3.org/2000/svg" xml:space="preserve" width="35.3683mm" height="39.8883mm" version="1.1" style="shape-rendering:geometricPrecision; text-rendering:geometricPrecision; image-rendering:optimizeQuality; fill-rule:evenodd; clip-rule:evenodd"
viewBox="0 0 338.14 381.36"
 xmlns:xlink="http://www.w3.org/1999/xlink">
 <defs>
  <style type="text/css">
   <![CDATA[
    .fil0 {fill:#2B2A29}
   ]]>
  </style>
 </defs>
 <g id="Katman_x0020_1">
  <metadata id="CorelCorpID_0Corel-Layer"/>
  <path class="fil0" d="M83.68 109.59c0,0 -1.56,-19.53 -25.76,-18.69 0,0 -16.77,-0.12 -24.8,14.97 -3.89,7.32 -7.9,14.89 -10.96,20.72 -4.63,8.8 -5.83,9.01 -6.39,18.7 -0.76,13.27 1.44,41.02 26.69,74.04 0,0 -12.46,0.9 -9.34,14.74 0,0 1.62,8.03 13.66,10.18 0,0 -4.67,-5.63 -2.4,-11.5 3.2,-8.25 11.18,0.72 18.26,-0.25 3.44,-0.47 7.58,-2.13 10.9,-6.16 6.41,-7.79 5.03,-20 -1.67,-27.13 -8.45,-8.99 -18.81,-29.17 -19.17,-49.9 -0.36,-20.73 17.01,-22.04 17.01,-22.04 0,0 11.02,0.36 13.96,-17.67zm-23.22 93.93c5.59,0 10.27,4.72 10.45,10.54 0.18,5.82 -4.21,10.54 -9.8,10.54 -5.59,0 -10.27,-4.72 -10.45,-10.54 -0.18,-5.82 4.21,-10.54 9.8,-10.54zm196.23 -93.93c0,0 1.56,-19.53 25.76,-18.69 0,0 16.77,-0.12 24.8,14.97 3.89,7.32 7.9,14.89 10.96,20.72 4.63,8.8 5.83,9.01 6.39,18.7 0.76,13.27 -1.44,41.02 -26.7,74.04 0,0 12.46,0.9 9.34,14.74 0,0 -1.62,8.03 -13.66,10.18 0,0 4.67,-5.63 2.4,-11.5 -3.2,-8.25 -11.18,0.72 -18.26,-0.25 -3.44,-0.47 -7.58,-2.13 -10.9,-6.16 -6.41,-7.79 -5.03,-20 1.67,-27.13 8.45,-8.99 18.81,-29.17 19.17,-49.9 0.36,-20.73 -17.01,-22.04 -17.01,-22.04 0,0 -11.02,0.36 -13.96,-17.67zm23.22 93.93c-5.59,0 -10.27,4.72 -10.45,10.54 -0.18,5.82 4.21,10.54 9.8,10.54 5.59,0 10.27,-4.72 10.45,-10.54 0.18,-5.82 -4.21,-10.54 -9.8,-10.54zm-183.52 84.01l39.06 36.9 -10.84 11.14c-29.35,-12.67 -39.94,1.23 -55.23,20.31 4.64,-20.25 13.05,-37.86 3.35,-45.17l-12.22 -8.63c-9.9,-5.91 -21.29,-2.91 -28.27,7.19 -5.11,-22.46 -21.49,-30.19 -32.23,-45.29 13.66,2.32 26.24,6.49 40.97,6.95l14.86 -26.6 14.14 14.02c-1.56,14.37 -1.44,27.82 5.15,32.95 6.93,4.53 14.02,3.04 21.27,-3.77zm145.38 0l-39.06 36.9 10.84 11.14c29.35,-12.67 39.94,1.23 55.23,20.31 -4.64,-20.25 -13.06,-37.86 -3.35,-45.17l12.22 -8.63c9.9,-5.91 21.29,-2.91 28.27,7.19 5.11,-22.46 21.49,-30.19 32.23,-45.29 -13.66,2.32 -26.24,6.49 -40.97,6.95l-14.86 -26.6 -14.14 14.02c1.56,14.37 1.44,27.82 -5.15,32.95 -6.92,4.53 -14.02,3.04 -21.27,-3.77zm-71.58 -287.52c-0.98,1.97 -43.06,82.84 -57.05,93.32 -1.34,0.66 -2.75,0.78 -4.25,0l-34.86 -23.96 27.49 66.49 -15.81 26.06 15.57 9.7 18.21 -25.16c1.59,-2.16 5.81,-1.96 8.15,-0.24 12.42,10.51 21.29,23.27 21.56,41.45 0,17 -10.33,35.1 -18.57,35.1 -6.65,-0.06 -12.04,-4.33 -16.77,-10.78 -0.36,4.91 -2.96,9.74 -7.79,14.5 16.77,18.35 33.76,38.19 48.88,45.65 -6.54,-12.13 -11.61,-24.9 -5.69,-31.51 6.41,-7.24 13.32,-14.04 20.94,-20.25 7.61,6.2 14.52,13.01 20.93,20.25 5.92,6.61 0.85,19.38 -5.69,31.51 15.12,-7.45 32.11,-27.3 48.88,-45.65 -4.83,-4.75 -7.43,-9.58 -7.79,-14.5 -4.73,6.45 -10.12,10.72 -16.77,10.78 -8.24,0 -18.57,-18.1 -18.57,-35.1 0.28,-18.18 9.14,-30.94 21.57,-41.45 2.33,-1.72 6.55,-1.92 8.15,0.24l18.21 25.16 15.58 -9.7 -15.82 -26.06 27.49 -66.49 -34.86 23.96c-1.5,0.78 -2.91,0.66 -4.25,0 -13.88,-11.17 -56.24,-91.79 -57.05,-93.32zm0.15 72.63l26.74 51.09c0.08,0.15 0.07,0.41 -0.03,0.58l-26.68 44.65c-0.1,0.17 -0.24,0.19 -0.32,0.05l-26.74 -44.74c-0.09,-0.15 -0.07,-0.41 0.03,-0.58l26.68 -51c0.09,-0.18 0.25,-0.2 0.33,-0.05zm-1.26 231.52l-75.21 -79.07c13.87,-11.21 18.92,-23.69 7.07,-38.58 -10.08,-11.32 -21.11,-14.8 -33.43,-7.91 -2.13,1.52 -2.35,4.58 -0.46,5.82 2.4,1.56 3.32,-0.09 4.82,-1.11 3.03,-2.07 7.43,-1.54 11.04,1.29 2.92,2.28 8.67,9.78 9.68,13.19 1.65,5.54 -0.29,10.97 -7,11.73 0.02,17.98 -6.17,28.86 -20.85,30.07l83.92 86.08 -34.8 36.78 19.29 18.93 35.91 -35.1 35.91 35.1 19.29 -18.93 -34.8 -36.78 83.92 -86.08c-14.67,-1.21 -20.87,-12.09 -20.85,-30.07 -6.72,-0.75 -8.65,-6.19 -7,-11.73 1.01,-3.41 6.76,-10.91 9.68,-13.19 3.61,-2.82 8.01,-3.36 11.04,-1.29 1.51,1.03 2.42,2.68 4.82,1.11 1.9,-1.24 1.67,-4.29 -0.46,-5.82 -12.31,-6.89 -23.35,-3.41 -33.43,7.91 -11.85,14.89 -6.8,27.36 7.07,38.58l-75.21 79.07zm-50.76 -28.43l1.59 -1.56c0.15,-0.15 0.4,-0.15 0.55,0.01l48.62 49.29 48.62 -49.29c0.15,-0.15 0.39,-0.15 0.54,-0.01l1.6 1.56c0.15,0.15 0.15,0.39 0.01,0.54l-48.47 49.51 30.59 31.01c0.15,0.15 0.15,0.4 -0.01,0.54l-1.9 1.88c-0.15,0.15 -0.4,0.15 -0.55,-0.01l-30.43 -31.08 -30.43 31.08c-0.15,0.15 -0.4,0.15 -0.55,0.01l-1.9 -1.88c-0.15,-0.15 -0.15,-0.39 -0.01,-0.54l30.59 -31.01 -48.47 -49.51c-0.15,-0.15 -0.15,-0.4 0.01,-0.54z"/>
 </g>
</svg>
