<?xml version="1.0" encoding="UTF-8"?>
<!DOCTYPE svg PUBLIC "-//W3C//DTD SVG 1.1//EN" "http://www.w3.org/Graphics/SVG/1.1/DTD/svg11.dtd">
<!-- Creator: CorelDRAW 2018 (64-Bit) -->
<svg xmlns="http://www.w3.org/2000/svg" xml:space="preserve" width="49.1511mm" height="39.8883mm" version="1.1" style="shape-rendering:geometricPrecision; text-rendering:geometricPrecision; image-rendering:optimizeQuality; fill-rule:evenodd; clip-rule:evenodd"
viewBox="0 0 539.21 437.59"
 xmlns:xlink="http://www.w3.org/1999/xlink">
 <defs>
  <style type="text/css">
   <![CDATA[
    .fil0 {fill:#2B2A29}
   ]]>
  </style>
 </defs>
 <g id="Katman_x0020_1">
  <metadata id="CorelCorpID_0Corel-Layer"/>
  <path class="fil0" d="M473.11 437.15c-70.4,-26.15 -125.25,-70.67 -166.22,-131.6 10.04,-10.12 19.92,-20.42 29.63,-30.96 -22.6,-7.41 -6.24,-13.82 -9.37,-20.74 13.16,-26.3 29.43,-47.5 48.83,-63.55 26.81,13.65 0.39,58.52 -33.45,86.96 31.33,7.41 43.09,-30.83 73.92,-22.41 -5.02,-10.32 -3.79,-19.9 6.36,-28.43 8.42,-5.8 25.87,-10.93 25.75,14.72 16.59,-13.89 31.47,-28.48 40.47,-45.49 18.9,-36.51 2.86,-86.9 50.17,-112.05 -19.47,0.6 -37.84,13.44 -55.52,34.12 0.14,28.21 -17.22,74.86 -52.18,67.9 10.99,-23.65 11.64,-42.4 5.69,-58.03 -0.75,18.72 -7.62,29.03 -18.04,34.47 -8.61,4.5 -19,-0.37 -21.77,-9.72 3.12,-5.13 1.56,-9.25 2.34,-13.88l9.2 -0.33c-3.19,-7.81 -3.22,-15.38 -0.17,-22.74 8.88,-15.35 19.32,-29.97 31.11,-43.98 4.51,-5.47 10.88,-5.52 18.06,-3.18 -3.18,-8.66 -2.82,-18.57 0.34,-25.59 7.92,-14.21 13.82,-28.43 16.39,-42.64 -11.07,6.54 -22.79,17.97 -34.95,32.78 -4.52,5.99 -11.7,8.28 -20.24,8.7 4.68,7.38 6.83,14.74 3.01,21.24 -9.29,14.96 -19.02,29.64 -30.1,43.48 -5.16,6.26 -11.56,8.69 -19.4,6.69 2.68,3.29 3.64,7.33 1.51,9.87 -3.18,3.07 -7.02,8.39 -11.54,7.69 -11.43,-4.51 -18.76,-10.45 -10.7,-23.58 -4.71,-4.28 -11.4,0.72 -14.67,6.78 -3.26,6.05 -1.46,8.92 -0.41,15.12 2.36,13.85 2.41,27.49 -2.82,40.65 -15.24,34.91 -38.69,68.93 -64.74,98.43 -26.05,-29.5 -49.5,-63.51 -64.74,-98.43 -5.23,-13.16 -5.18,-26.8 -2.82,-40.65 1.05,-6.2 2.85,-9.07 -0.41,-15.12 -3.26,-6.06 -9.96,-11.05 -14.66,-6.78 8.06,13.13 0.73,19.07 -10.7,23.58 -4.52,0.7 -8.36,-4.63 -11.54,-7.69 -2.13,-2.54 -1.17,-6.58 1.51,-9.87 -7.84,2 -14.24,-0.43 -19.4,-6.69 -11.08,-13.84 -20.81,-28.52 -30.1,-43.48 -3.82,-6.5 -1.67,-13.86 3.01,-21.24 -8.53,-0.42 -15.72,-2.71 -20.24,-8.7 -12.16,-14.8 -23.88,-26.24 -34.95,-32.78 2.57,14.21 8.47,28.43 16.39,42.64 3.15,7.02 3.52,16.93 0.34,25.59 7.19,-2.34 13.55,-2.29 18.06,3.18 11.78,14.01 22.22,28.64 31.11,43.98 3.06,7.36 3.02,14.94 -0.17,22.74l9.2 0.33c0.78,4.63 -0.78,8.75 2.34,13.88 -2.76,9.35 -13.15,14.22 -21.77,9.72 -10.41,-5.45 -17.29,-15.76 -18.03,-34.47 -5.95,15.63 -5.31,34.38 5.69,58.03 -34.95,6.96 -52.32,-39.69 -52.18,-67.9 -17.68,-20.67 -36.06,-33.51 -55.52,-34.12 47.31,25.15 31.27,75.53 50.17,112.05 9,17.01 23.88,31.6 40.47,45.49 -0.11,-25.64 17.34,-20.51 25.75,-14.72 10.14,8.53 11.38,18.11 6.35,28.43 30.83,-8.42 42.59,29.82 73.92,22.41 -33.83,-28.44 -60.26,-73.32 -33.45,-86.96 19.4,16.05 35.67,37.25 48.83,63.55 -3.12,6.91 13.24,13.32 -9.37,20.74 9.72,10.54 19.59,20.84 29.63,30.96 -40.97,60.93 -95.82,105.45 -166.22,131.6 98.78,5.13 138.39,-35.31 189.73,-82.58 4.62,-4.25 9.21,-8.52 13.77,-12.8 4.56,4.28 9.15,8.55 13.77,12.8 51.35,47.27 90.95,87.72 189.73,82.58zm-202.61 -358.77c0,0 -9.07,23.66 -10.41,61.46 0,0 -17.22,-8.03 -9.7,-51.01 0,0 -5.18,10.87 -13.8,17.81 0,0 -9.37,-1.51 -10.87,-20.74 -1.51,-19.23 6.86,-47.41 20.4,-59.79 0,0 -4.01,-6.19 -20.24,16.22 -16.22,22.41 -24.08,59.37 -13.21,92.15 0,0 12.21,-6.19 19.23,3.85 7.02,10.03 -1,22.91 -1,22.91 0,0 23.75,-9.87 23.08,6.86 -0.67,16.72 -5.69,28.93 -14.72,46.16 21.22,10.54 30.81,44.62 31.23,45.48 0.39,-0.81 10.01,-34.94 31.23,-45.48 -9.03,-17.22 -14.05,-29.43 -14.72,-46.16 -0.67,-16.72 23.08,-6.86 23.08,-6.86 0,0 -8.03,-12.88 -1,-22.91 7.02,-10.03 19.23,-3.85 19.23,-3.85 10.87,-32.78 3.01,-69.74 -13.21,-92.15 -16.22,-22.41 -20.24,-16.22 -20.24,-16.22 13.55,12.38 21.91,40.56 20.4,59.79 -1.51,19.23 -10.87,20.74 -10.87,20.74 -8.61,-6.94 -13.8,-17.81 -13.8,-17.81 7.52,42.98 -9.7,51.01 -9.7,51.01 -1.34,-37.8 -10.41,-61.46 -10.41,-61.46zm0 99.13c-0.48,-1.48 -7.66,26.07 -8.19,32.77 0,0 0.17,2.43 8.19,11.96 8.03,-9.53 8.19,-11.96 8.19,-11.96 -0.54,-6.7 -7.71,-34.24 -8.19,-32.77z"/>
 </g>
</svg>
