<?xml version="1.0" encoding="UTF-8"?>
<!DOCTYPE svg PUBLIC "-//W3C//DTD SVG 1.1//EN" "http://www.w3.org/Graphics/SVG/1.1/DTD/svg11.dtd">
<!-- Creator: CorelDRAW 2018 (64-Bit) -->
<svg xmlns="http://www.w3.org/2000/svg" xml:space="preserve" width="37.0678mm" height="33.716mm" version="1.1" style="shape-rendering:geometricPrecision; text-rendering:geometricPrecision; image-rendering:optimizeQuality; fill-rule:evenodd; clip-rule:evenodd"
viewBox="0 0 622.22 565.96"
 xmlns:xlink="http://www.w3.org/1999/xlink">
 <defs>
  <style type="text/css">
   <![CDATA[
    .fil0 {fill:#2B2A29}
   ]]>
  </style>
 </defs>
 <g id="Katman_x0020_1">
  <metadata id="CorelCorpID_0Corel-Layer"/>
  <path class="fil0" d="M554.86 191.08l11.68 -12.46c0,0 18.1,34.45 23.16,54.89l-23.75 24.91 -15.96 -28.42c0,0 5.64,-22.97 4.87,-38.93zm-6.81 57.42l17.52 29 31.73 -29.2 2.72 28.03c-10.74,12.3 -23,24.16 -37.37,35.43l-19.85 -31.34c0,0 3.89,-16.74 5.26,-31.92zm-9.73 48.47l18.69 31.53c0,0 24.13,-6.03 43.79,-32.89 0,0 1.17,36.4 -11.87,55.86 0,0 -22.58,14.79 -43.02,18.3l-19.07 -40.1c0,0 7.98,-18.88 11.48,-32.7zm-19.07 43.99c0,0 15.57,37.76 18.1,45.35 0,0 38.93,-7.59 50.61,-14.6 0,0 -14.01,30.17 -21.8,42.82 0,0 -33.09,9.73 -52.36,9.54 0,0 -7.98,-47.69 -11.1,-55.47 0,0 11.29,-14.99 16.55,-27.64zm43.79 91.68c0,0 -45.93,8.17 -65.98,7.4l-5.06 -59.56c0,0 -14.79,15.18 -31.34,27.05 0,0 -0.78,52.17 -1.75,62.87 0,0 42.62,14.4 62.87,14.01 0,0 27.25,-27.83 41.26,-51.77zm-495.64 -241.55l-11.68 -12.46c0,0 -18.1,34.45 -23.16,54.89l23.75 24.91 15.96 -28.42c0,0 -5.64,-22.97 -4.87,-38.93zm6.81 57.42l-17.52 29 -31.73 -29.2 -2.72 28.03c10.74,12.3 23,24.16 37.37,35.43l19.85 -31.34c0,0 -3.89,-16.74 -5.26,-31.92zm9.73 48.47l-18.69 31.53c0,0 -24.13,-6.03 -43.79,-32.89 0,0 -1.17,36.4 11.87,55.86 0,0 22.58,14.79 43.02,18.3l19.07 -40.1c0,0 -7.98,-18.88 -11.48,-32.7zm19.07 43.99c0,0 -15.57,37.76 -18.1,45.35 0,0 -38.93,-7.59 -50.61,-14.6 0,0 14.01,30.17 21.8,42.82 0,0 33.09,9.73 52.36,9.54 0,0 7.98,-47.69 11.1,-55.47 0,0 -11.29,-14.99 -16.55,-27.64zm-43.79 91.68c0,0 45.93,8.17 65.98,7.4l5.06 -59.56c0,0 14.79,15.18 31.34,27.05 0,0 0.78,52.17 1.75,62.87 0,0 -42.62,14.4 -62.87,14.01 0,0 -27.25,-27.83 -41.26,-51.77zm-50.83 -432.63c0,0 -8.95,85.74 -8.37,96.05 0.49,8.73 -0.92,45.06 22.43,57.32 23.36,12.26 33.67,11.49 45.16,25.89 11.49,14.4 31.78,33.92 31.78,33.92 0,0 -23.11,-57.76 1.22,-71.97l62.68 110.36c0,0 3.89,6.81 -0.88,12.94 0,0 11.09,-3.11 11.58,6.03 0.49,9.15 0.68,30.56 0.68,30.56 0,0 27.15,-2.72 43.31,-14.79 16.15,-12.07 27.45,-25.69 29.78,-34.26l-29.49 -13.43c0,0 -6.32,-4.18 -0.68,-11.19 0,0 -7.3,2.04 -12.26,-5.16 -4.96,-7.2 -105.11,-131.09 -105.11,-131.09 0,0 -5.74,-7.2 -2.82,-13.43 2.92,-6.23 -23.35,-31.14 -23.35,-31.14 0,0 -2.34,-2.24 -6.72,-0.1 -4.38,2.14 -15.47,10.12 -15.47,10.12 0,0 -2.63,1.85 -0.39,7.88 2.24,6.03 12.65,29.68 12.65,29.68 0,0 2.72,3.5 7.3,3.21 4.57,-0.29 11.78,3.89 10.12,9.24 -1.65,5.35 -11.78,6.23 -17.42,3.89 -5.64,-2.33 -17.03,-12.75 -26.08,-26.18 -9.05,-13.43 -17.47,-24.72 -29.64,-84.37zm234.95 274.05c0,0 -21.61,25.11 -48.47,31.34 0,0 -5.64,0.88 -4.48,7.69 1.17,6.81 0.68,26.18 -19.95,46.62 0,0 14.5,-0.05 29.3,-1.56 14.08,-1.44 27.91,-2.92 38.63,-14.2 0,0 5.25,-3.89 11.09,3.5 4.56,5.78 34.06,51.11 46.76,70.67 0.28,-0.02 0.57,-0.03 0.87,-0.03 1.45,-0.58 4.09,-3.13 4.88,-4.22 1.87,-2.62 3.69,-5.41 5.48,-8.18 -14.82,-22.55 -45.43,-69.43 -45.43,-69.43 0,0 -1.95,-8.17 2.53,-10.51 4.48,-2.33 15.57,-9.15 25.69,-28.22 10.12,-19.07 13.24,-25.69 13.24,-25.69 0,0 -32.7,10.12 -42.24,5.84 -9.54,-4.28 -11.68,-7.98 -17.91,-3.6zm72.79 175.66l17.33 24.13c0,0 3.89,7.79 -0.39,11.58 -4.28,3.8 -4.09,4.87 -4.09,4.87 0,0 20.34,2.43 25.89,-2.53 5.55,-4.96 8.08,-20.92 8.08,-20.92 0,0 -8.27,3.8 -12.85,-0.19 -4.57,-3.99 -21.31,-31.63 -21.31,-31.63 0,0 -1.7,-3.21 -0.34,-5.65 0.7,-1.24 0.57,-2.61 -0.12,-3.62l-2.99 4.62 -0.06 0.09 -0.06 0.09c-0.63,0.9 -2.05,3.55 -2.12,4.83 1.96,2.79 2.67,6.28 0.99,9.43 -1.55,2.91 -4.71,4.54 -7.97,4.91zm297.69 -449.71c0,0 8.95,85.74 8.37,96.05 -0.49,8.73 0.92,45.06 -22.43,57.32 -23.36,12.26 -33.67,11.49 -45.16,25.89 -11.48,14.4 -31.78,33.92 -31.78,33.92 0,0 23.11,-57.76 -1.22,-71.97l-62.67 110.36c0,0 -3.89,6.81 0.88,12.94 0,0 -11.1,-3.11 -11.58,6.03 -0.49,9.15 -0.68,30.56 -0.68,30.56 0,0 -27.15,-2.72 -43.31,-14.79 -16.15,-12.07 -27.44,-25.69 -29.78,-34.26l29.49 -13.43c0,0 6.33,-4.18 0.68,-11.19 0,0 7.3,2.04 12.26,-5.16 4.96,-7.2 105.11,-131.09 105.11,-131.09 0,0 5.74,-7.2 2.82,-13.43 -2.92,-6.23 23.35,-31.14 23.35,-31.14 0,0 2.34,-2.24 6.72,-0.1 4.38,2.14 15.47,10.12 15.47,10.12 0,0 2.63,1.85 0.39,7.88 -2.24,6.03 -12.65,29.68 -12.65,29.68 0,0 -2.72,3.5 -7.3,3.21 -4.57,-0.29 -11.78,3.89 -10.12,9.24 1.66,5.35 11.78,6.23 17.42,3.89 5.65,-2.33 17.03,-12.75 26.08,-26.18 9.05,-13.43 17.47,-24.72 29.65,-84.37zm-234.95 274.05c0,0 21.61,25.11 48.47,31.34 0,0 5.64,0.88 4.48,7.69 -1.17,6.81 -0.68,26.18 19.95,46.62 0,0 -14.5,-0.05 -29.3,-1.56 -14.08,-1.44 -27.91,-2.92 -38.63,-14.2 0,0 -5.25,-3.89 -11.09,3.5 -5.84,7.4 -52.55,79.61 -52.55,79.61 0,0 -5.35,7.59 -2.24,11.68 3.11,4.09 -2.14,5.45 -4.77,4.77 -2.63,-0.68 -6.32,5.16 -6.32,5.16l-18.1 25.2c0,0 -3.89,7.79 0.39,11.58 4.28,3.8 4.09,4.87 4.09,4.87 0,0 -20.34,2.43 -25.89,-2.53 -5.55,-4.96 -8.08,-20.92 -8.08,-20.92 0,0 8.27,3.8 12.84,-0.19 4.57,-3.99 21.31,-31.63 21.31,-31.63 0,0 1.7,-3.21 0.34,-5.65 -1.36,-2.43 0.44,-5.35 3.45,-5.16 3.02,0.19 7.88,-4.23 9.73,-6.76 1.85,-2.53 53.23,-81.22 53.23,-81.22 0,0 1.95,-8.17 -2.53,-10.51 -4.48,-2.33 -15.57,-9.15 -25.69,-28.22 -10.12,-19.07 -13.24,-25.69 -13.24,-25.69 0,0 32.7,10.12 42.24,5.84 9.54,-4.28 11.68,-7.98 17.91,-3.6zm-228.91 -181.5c47.7,-24.88 104.07,-42.52 161.16,-59.56 57.1,17.04 113.47,34.69 161.16,59.56 0.1,16.42 -0.05,32.88 -0.61,49.29l-8.28 10.28c-5.91,7.35 -11.83,14.7 -17.73,22.06 1.63,-21.79 2.3,-44.06 2.39,-66.64 -41.35,-19.86 -86.84,-34.21 -130.79,-47.4l0 203.54 -1.58 -0.49 -4.2 7.25 -4.98 -7.25 -5.19 1.6c-6.74,2.08 -13.92,3.87 -20.84,5.15 -3.06,0.57 -13.44,2.24 -16.22,1.01 -5.56,-2.5 -9.84,-5.62 -14.57,-6.18 2.38,-3.61 4.21,-7.25 5.17,-10.77l1.65 -6.04 -33.62 -15.31c8.04,-5.57 -0.03,-14.49 -7.15,-12.33 -1.81,0.34 -3.37,-0.78 -4.35,-2.21 -1.8,-2.61 -3.99,-5.25 -5.95,-7.74 -3.99,-5.06 -8.01,-10.11 -12.03,-15.14 -11.5,-14.4 -23.04,-28.75 -34.59,-43.11l-8.23 -10.23c-0.56,-16.43 -0.71,-32.9 -0.61,-49.34zm293.09 215.43c-1.36,3.6 -2.77,7.17 -4.25,10.71 -0.05,-1.53 0.03,-3.01 0.26,-4.37 0.41,-2.41 0.35,-4.81 -0.28,-7.02 1.44,0.26 2.87,0.49 4.28,0.68zm-28.1 56.71c-18.14,28.65 -41.82,54.98 -72.69,78.1 -2.31,-3.64 -4.59,-7.31 -6.83,-10.99 1.37,-3.33 1.03,-7.15 -1.03,-10.18l-1 -1.46 1.55 -2.39c22.57,-18.04 40.77,-38.08 55.39,-59.77 7.52,3.94 15.77,5.6 24.61,6.7zm-99.75 96.36c-1.36,0.83 -2.71,1.66 -4.09,2.48 -1.39,-0.82 -2.75,-1.66 -4.12,-2.5l4.1 -5.7 4.11 5.72zm-35.26 -18.29c-30.86,-23.11 -54.53,-49.44 -72.66,-78.08 13.09,-1.63 24.88,-4.49 34.94,-14.2 0.55,0.41 1.22,1.18 1.47,1.5 1.16,1.47 2.27,3.14 3.33,4.69 2.06,3 4.09,6.03 6.11,9.06 5.54,8.31 11.02,16.65 16.49,25 6.44,9.84 12.86,19.7 19.27,29.56 -2.77,2.94 -3.87,7.34 -2.13,11.49 -2.23,3.67 -4.51,7.34 -6.82,10.97zm-96.54 -124.17c-1.47,-3.52 -2.87,-7.06 -4.21,-10.63 1.39,-0.19 2.8,-0.42 4.24,-0.68 0.68,4.76 0.1,7.21 -0.02,11.3zm133.87 -33.15l0 102.96 -6.17 9.41c-14.06,-21.41 -28.06,-42.87 -42.07,-64.31 -0.06,-0.6 -0.1,-1.28 -0.05,-1.8 12.15,-6.72 21.39,-18.71 27.77,-30.75 4.52,-8.52 9.27,-17.27 13.39,-26l0.96 -2.04 0.96 2.04c1.65,3.5 3.41,7.01 5.21,10.5zm-138.1 129.08c0,0 30.75,14.99 43.02,20.24 0,0 5.26,25.3 12.46,45.35l15.77 3.11c0,0 9.15,1.95 14.99,13.24l26.86 0 19.46 9.54 19.46 -9.54 26.86 0c5.84,-11.29 14.99,-13.24 14.99,-13.24l15.77 -3.11c7.2,-20.05 12.46,-45.35 12.46,-45.35 12.26,-5.26 43.02,-20.24 43.02,-20.24 -4.67,33.67 -4.67,66.96 -4.67,66.96 15.38,8.37 72.02,20.24 72.02,20.24l-64.23 26.47 -56.25 -28.42c-36.4,6.03 -55.08,17.13 -55.08,17.13 0,0 19.66,9.34 29.39,18.88 9.73,9.54 4.48,22.38 4.48,22.38l-8.76 7.79c-19.66,-27.05 -49.44,-36.79 -49.44,-36.79 0,0 -29.78,9.73 -49.44,36.79l-8.76 -7.79c0,0 -5.26,-12.85 4.48,-22.38 9.73,-9.54 29.39,-18.88 29.39,-18.88 0,0 -18.69,-11.09 -55.08,-17.13l-56.25 28.42 -64.23 -26.47c0,0 56.64,-11.87 72.02,-20.24 0,0 0,-33.29 -4.67,-66.96z"/>
 </g>
</svg>
