<?xml version="1.0" encoding="UTF-8"?>
<!DOCTYPE svg PUBLIC "-//W3C//DTD SVG 1.1//EN" "http://www.w3.org/Graphics/SVG/1.1/DTD/svg11.dtd">
<!-- Creator: CorelDRAW 2018 (64-Bit) -->
<svg xmlns="http://www.w3.org/2000/svg" xml:space="preserve" width="51.0912mm" height="49.8604mm" version="1.1" style="shape-rendering:geometricPrecision; text-rendering:geometricPrecision; image-rendering:optimizeQuality; fill-rule:evenodd; clip-rule:evenodd"
viewBox="0 0 948.78 925.92"
 xmlns:xlink="http://www.w3.org/1999/xlink">
 <defs>
  <style type="text/css">
   <![CDATA[
    .fil0 {fill:#2B2A29}
   ]]>
  </style>
 </defs>
 <g id="Katman_x0020_1">
  <metadata id="CorelCorpID_0Corel-Layer"/>
  <path class="fil0" d="M474.39 0c0,0 -37.49,100.64 -112.46,198.29 0,0 -25.2,-9.14 -37.48,-28.04 0,0 10.08,64.26 -4.41,72.76 -14.49,8.51 -123.8,-76.23 -123.8,-76.23l70.88 157.19c0,0 5.98,12.28 -1.58,23.62 -7.56,11.34 -33.39,63.95 -49.77,73.71 -16.38,9.76 -40.64,0.63 -40.64,0.63 0,0 49.45,54.18 -1.58,139.86l-60.79 -10.71 35.6 35.59c0,0 11.65,14.18 2.52,28.98 -9.13,14.8 -31.81,55.44 -31.81,55.44 0,0 -2.52,11.97 -25.51,9.14 -23,-2.84 -93.56,-17.96 -93.56,-17.96 0,0 101.74,77.49 95.13,145.85 0,0 49.45,-47.25 85.68,-32.44 36.23,14.8 50.08,34.96 50.08,34.96 0,0 5.36,19.84 0,38.11 -5.36,18.27 -21.42,73.08 -21.42,73.08l42.21 -46.62c0,0 25.2,-29.29 71.19,-18.27 45.99,11.03 106.78,22.68 106.78,22.68 11.85,3.08 44.66,46.2 44.73,46.29 0.06,-0.08 32.88,-43.21 44.73,-46.29 0,0 60.8,-11.65 106.78,-22.68 45.99,-11.03 71.19,18.27 71.19,18.27l42.21 46.62c0,0 -16.07,-54.81 -21.42,-73.08 -5.35,-18.27 0,-38.11 0,-38.11 0,0 13.86,-20.16 50.08,-34.96 36.23,-14.81 85.68,32.44 85.68,32.44 -6.61,-68.36 95.13,-145.85 95.13,-145.85 0,0 -70.56,15.12 -93.56,17.96 -23,2.83 -25.52,-9.14 -25.52,-9.14 0,0 -22.68,-40.63 -31.81,-55.44 -9.13,-14.8 2.52,-28.98 2.52,-28.98l35.59 -35.59 -60.79 10.71c-51.03,-85.68 -1.58,-139.86 -1.58,-139.86 0,0 -24.25,9.13 -40.64,-0.63 -16.38,-9.76 -42.21,-62.37 -49.77,-73.71 -7.56,-11.34 -1.57,-23.62 -1.57,-23.62l70.88 -157.19c0,0 -109.3,84.73 -123.8,76.23 -14.49,-8.51 -4.41,-72.76 -4.41,-72.76 -12.29,18.9 -37.49,28.04 -37.49,28.04 -74.97,-97.65 -112.45,-198.29 -112.45,-198.29zm0.78 191.6l-74.49 131.2 74.34 116.24 73.08 -116.86 -72.93 -130.57zm-188.22 457.54l-51.66 -40.32c0,0 -11.03,-15.44 7.56,-34.65 18.59,-19.21 45.99,-12.91 62.05,8.82 16.07,21.73 21.1,45.68 20.16,74.97 -0.95,29.29 -13.54,71.5 -49.77,93.87 -36.23,22.36 -54.49,-4.1 -61.74,-22.36 -7.24,-18.27 -7.24,-58.28 8.82,-79.38 16.07,-21.11 64.58,-0.95 64.58,-0.95zm-1.73 -191.52c8.67,-16.03 41.58,-64.26 41.58,-64.26 0,0 16.07,-21.73 33.71,-15.43 17.64,6.3 38.43,43.47 38.43,43.47 0,0 18.58,33.08 20.16,62.37 1.57,29.29 -16.38,66.47 -16.38,66.47 0,0 -13.55,24.88 -30.56,28.03 -15.88,2.94 -61.64,-37.42 -81.27,-76.39 -7.58,-15.05 -14.35,-28.23 -5.68,-44.26zm376.6 191.52l51.66 -40.32c0,0 11.02,-15.44 -7.56,-34.65 -18.59,-19.21 -45.99,-12.91 -62.05,8.82 -16.07,21.73 -21.11,45.68 -20.16,74.97 0.94,29.29 13.54,71.5 49.77,93.87 36.23,22.36 54.5,-4.1 61.74,-22.36 7.24,-18.27 7.25,-58.28 -8.82,-79.38 -16.07,-21.11 -64.58,-0.95 -64.58,-0.95zm1.73 -191.52c-8.67,-16.03 -41.58,-64.26 -41.58,-64.26 0,0 -16.06,-21.73 -33.7,-15.43 -17.64,6.3 -38.43,43.47 -38.43,43.47 0,0 -18.58,33.08 -20.16,62.37 -1.57,29.29 16.38,66.47 16.38,66.47 0,0 13.54,24.88 30.55,28.03 15.88,2.94 61.64,-37.42 81.27,-76.39 7.58,-15.05 14.35,-28.23 5.68,-44.26zm-189.16 108.71c-0.1,-0.1 -44.58,44.15 -48.94,48.47 0,0 -18.27,20.79 -10.4,43.47 7.88,22.68 23.94,47.25 23.94,47.25 0,0 -49.14,-39.69 -68.04,-10.71 -18.9,28.98 -26.78,57.33 -29.3,92.61 -2.52,35.28 80.32,57.33 131.35,54.49l1.38 -0.08 1.38 0.08c51.03,2.83 133.87,-19.21 131.35,-54.49 -2.52,-35.28 -10.4,-63.63 -29.3,-92.61 -18.9,-28.98 -68.04,10.71 -68.04,10.71 0,0 16.07,-24.57 23.94,-47.25 7.87,-22.68 -10.4,-43.47 -10.4,-43.47 -4.36,-4.32 -48.84,-48.57 -48.94,-48.47z"/>
 </g>
</svg>
