<?xml version="1.0" encoding="UTF-8"?>
<!DOCTYPE svg PUBLIC "-//W3C//DTD SVG 1.1//EN" "http://www.w3.org/Graphics/SVG/1.1/DTD/svg11.dtd">
<!-- Creator: CorelDRAW 2018 (64-Bit) -->
<svg xmlns="http://www.w3.org/2000/svg" xml:space="preserve" width="39.9467mm" height="39.8883mm" version="1.1" style="shape-rendering:geometricPrecision; text-rendering:geometricPrecision; image-rendering:optimizeQuality; fill-rule:evenodd; clip-rule:evenodd"
viewBox="0 0 3072.75 3068.25"
 xmlns:xlink="http://www.w3.org/1999/xlink">
 <defs>
  <style type="text/css">
   <![CDATA[
    .fil0 {fill:#2B2A29}
   ]]>
  </style>
 </defs>
 <g id="Katman_x0020_1">
  <metadata id="CorelCorpID_0Corel-Layer"/>
  <path class="fil0" d="M3072.75 985.95c0,0 -375.9,-28.77 -653.99,159.18l42.19 85.35c0,0 13.42,41.23 -18.21,81.51 -31.65,40.28 -213.84,277.13 -213.84,277.13l215.76 147.67c89.46,-205.05 131.52,-365.81 296.5,-523.39 74.93,-71.56 182.39,-153.83 331.6,-227.46zm-513.02 954.13l-289.59 -178.36 -151.51 193.7 270.42 176.44 170.69 -191.79zm46.04 49.86l-229.19 261.79 -336.58 -217.68c0,0 -23.01,61.38 18.22,87.27 41.24,25.89 66.17,45.07 66.17,45.07 0,0 -94.94,127.54 -49.87,210.01 45.07,82.47 182.2,68.08 182.2,68.08 0,0 -122.74,-73.84 -96.85,-146.72 25.89,-72.88 35.48,-77.67 35.48,-77.67l178.36 119.87c0,0 47.95,23.98 70.97,-8.62 23.01,-32.61 179.32,-245.49 179.32,-245.49 0,0 38.35,-35.48 -18.22,-95.89zm-11.02 272.8l-140.97 160.14c0,0 -18.7,332.75 -227.75,391.25l20.14 137.13 147.67 116.99 172.61 -29.73 86.31 -386.44c0,0 74.8,-268.5 -58.02,-389.34zm-2594.74 -1276.79c0,0 375.9,-28.77 653.99,159.18l-42.19 85.35c0,0 -13.43,41.23 18.21,81.51 31.65,40.28 213.84,277.13 213.84,277.13l-215.76 147.67c-89.46,-205.05 -131.53,-365.81 -296.5,-523.39 -74.93,-71.56 -182.39,-153.83 -331.6,-227.46zm513.01 954.13l289.6 -178.36 151.5 193.7 -270.41 176.44 -170.7 -191.79zm-46.03 49.86l229.19 261.79 336.58 -217.68c0,0 23.02,61.38 -18.21,87.27 -41.24,25.89 -66.17,45.07 -66.17,45.07 0,0 94.94,127.54 49.87,210.01 -45.07,82.47 -182.2,68.08 -182.2,68.08 0,0 122.75,-73.84 96.86,-146.72 -25.9,-72.88 -35.48,-77.67 -35.48,-77.67l-178.36 119.87c0,0 -47.95,23.98 -70.97,-8.62 -23.01,-32.61 -179.32,-245.49 -179.32,-245.49 0,0 -38.35,-35.48 18.22,-95.89zm11.02 272.8l140.97 160.14c0,0 18.69,332.75 227.74,391.25l-20.13 137.13 -147.68 116.99 -172.61 -29.73 -86.31 -386.44c0,0 -74.8,-268.5 58.02,-389.34zm171.05 -2093.98c0,0 254.12,388.37 391.24,465.08 0,0 54.66,41.24 104.52,-16.3 131.9,-106.05 321.21,-518.42 387.88,-617.55 76.61,97.29 255.99,511.49 387.88,617.55 49.87,57.54 104.53,16.3 104.53,16.3 137.12,-76.71 391.24,-465.08 391.24,-465.08l-124.17 521.66c-98.77,-20.14 -163.02,19.18 -209.05,43.16 -46.03,23.97 -207.13,157.73 -207.13,157.73 -2.4,-25.89 -34.05,-89.17 -34.05,-89.17 0,0 -176.44,-256.99 -221.03,-320.28 -44.59,-63.29 -88.23,-81.99 -88.23,-81.99 0,0 -43.63,18.7 -88.22,81.99 -44.6,63.29 -221.04,320.28 -221.04,320.28 0,0 -31.64,63.28 -34.04,89.17 0,0 -161.1,-133.77 -207.13,-157.73 -46.03,-23.98 -110.27,-63.3 -209.05,-43.16l-124.17 -521.66zm887.43 473.43l-152.96 382.6 153.42 126.1 153.43 -131.37 -153.9 -377.33zm-687.09 134.72l688.51 479.47 686.59 -476.59 191.78 201.38 -630.98 454.53 415.22 275.22 -176.45 256.04 -487.13 -355.77 -485.22 350.97 -176.45 -253.16 411.38 -279.05 -621.38 -456.46 184.13 -196.58zm63.26 186.99l630.01 444.46 626.66 -442.54 30.21 37.4 -624.26 429.6 156.3 107.41 -28.77 38.35 -162.07 -120.83 -168.77 121.79 -28.28 -41.24 155.82 -107.41 -618.51 -430.55 31.66 -36.44zm623.72 1654.12c0,0 -142.4,-46.03 -180.76,-175.48 -35.18,-118.71 -8.48,-251.1 46.41,-358.44 27.2,-53.2 61.24,-135.66 33.16,-171.85 0,0 -68.08,134.25 -290.55,135.21 0,0 -150.55,235.89 10.55,467.96 161.1,232.06 381.18,534.6 381.18,534.6 0,0 220.09,-302.55 381.19,-534.6 161.1,-232.06 10.55,-467.96 10.55,-467.96 -222.47,-0.96 -290.55,-135.21 -290.55,-135.21 -28.07,36.19 5.96,118.65 33.16,171.85 54.89,107.34 81.59,239.73 46.41,358.44 -38.35,129.45 -180.76,175.48 -180.76,175.48z"/>
 </g>
</svg>
