<?xml version="1.0" encoding="UTF-8"?>
<!DOCTYPE svg PUBLIC "-//W3C//DTD SVG 1.1//EN" "http://www.w3.org/Graphics/SVG/1.1/DTD/svg11.dtd">
<!-- Creator: CorelDRAW 2018 (64-Bit) -->
<svg xmlns="http://www.w3.org/2000/svg" xml:space="preserve" width="560.327mm" height="139.566mm" version="1.1" style="shape-rendering:geometricPrecision; text-rendering:geometricPrecision; image-rendering:optimizeQuality; fill-rule:evenodd; clip-rule:evenodd"
viewBox="0 0 56032.72 13956.57"
 xmlns:xlink="http://www.w3.org/1999/xlink">
 <defs>
  <style type="text/css">
   <![CDATA[
    .fil0 {fill:#D3AF37}
   ]]>
  </style>
 </defs>
 <g id="Katman_x0020_1">
  <metadata id="CorelCorpID_0Corel-Layer"/>
  <path class="fil0" d="M2179.97 3040.85l35.03 5920.55c-0.94,483.23 154.12,768.7 529.58,794.98 891.65,46.12 1779.41,10.05 2663.86,-33.68 629.42,-17.61 1013.3,-74.68 1172.62,-157.07 164.51,-85.11 154.37,-53.44 244.13,81.23 138.96,208.46 287.73,414.45 458.88,614.88 57.51,78.6 -114.08,142.82 -243.87,142.82 -1847,19.1 -3703.29,21.9 -5543.17,42.19 -440.1,4.85 -874.84,25.32 -1313.4,30.44 -196.87,0 -230.81,-58.72 -123.96,-148.22l720.87 -651.49c101.76,-121.29 159.63,-275.47 175.16,-461.44l0 -6731.61c-30.46,-711.5 -157.41,-1181.76 -343.99,-1502.92 -77.32,-133 -54.32,-251.25 10.95,-300.27 66.27,-49.79 157.88,-17.27 201.81,46.53l1306.21 1896.78c30.55,92.17 54.75,205.3 49.29,416.3zm9421 1417.76c-735.37,0 -1333.66,262.33 -1692.39,846.04 -264.39,430.22 -389.75,1039.99 -389.75,1822.74 0,687.58 49.9,1305.69 275.6,1765.08 340.67,693.43 997.54,1063.21 1817.34,1065.64 762.65,2.25 1381.48,-332.3 1729.62,-948.63 270.34,-478.58 356.08,-1135.66 356.08,-1882.09 0,-740.38 -103.95,-1328.72 -346.19,-1754.21 -357.83,-628.52 -984.01,-914.57 -1750.31,-914.57zm-2.11 -516.56c1944.04,0 3229.59,1217.07 3229.59,3185.34 0,1989.78 -1172.06,3352.03 -3216.79,3347.28 -2051.86,-4.64 -3223.81,-1338.2 -3223.81,-3347.28 0,-1951.13 1276.01,-3185.34 3211.01,-3185.34zm7314.48 -29.43c952.88,-8.72 1384.63,483.7 1589.95,1193.81 22.92,64.68 -71.42,119.92 -113.19,64.68 -388.37,-392.56 -870.06,-644.07 -1428.25,-644.07 -442.22,0 -1218.88,311.39 -1196.81,861.21 22.65,564.21 1008.92,995.88 1400.28,1181.23 774.35,366.73 1922.58,761.78 1917.19,1826.35 0,814.17 -602.62,1973.64 -2140.87,1973.64 -775.51,0 -1347.61,-252.36 -2071.5,-966.83 -73.41,-72.4 115.15,-40.68 151.92,-30.34 251.8,70.85 439.44,199.8 678.25,292.57 255.2,99.14 567.63,159.97 1039.21,160.24 492.37,0 820.92,-109.06 1029.05,-309.42 243.22,-234.13 422.97,-869.95 237.85,-1173.57 -225.88,-370.5 -963.51,-619.23 -1665.95,-967.66 -800.18,-396.93 -1552,-930.18 -1552,-1667.03 0,-889.45 877.09,-1756.92 2124.87,-1794.81zm3247.45 -11.21l3694.64 512.02c85.02,25.78 160.21,71.23 218.27,150.92l320.69 452.73c47.84,85.09 75.83,190.06 72.78,326.06l0 8563.62c0,68.36 -204.97,97.98 -218.19,-125.03l-502.29 -6379.03c-31.38,-367.66 -224.57,-449.87 -224.57,-678.2 0,-233.54 273.97,-496.28 273.97,-781.48l0 -574.88c0,-489.5 -582.41,-697.96 -1176.7,-759.03 -939.15,-116.27 -1313.18,171.7 -1313.18,754.58 -1.51,302.25 41.08,622.18 63.67,943.14 17.56,249.41 -19.91,249.56 -137.77,13.54l-1203.1 -2284.99c-41.42,-77.21 0.27,-154.44 131.78,-133.97zm9117.22 0l-3694.63 512.02c-85.03,25.78 -160.21,71.23 -218.28,150.92l-320.69 452.73c-47.84,85.09 -75.83,190.06 -72.77,326.06l0 8563.62c0,68.36 204.96,97.98 218.18,-125.03l502.29 -6379.03c31.39,-367.66 224.58,-449.87 224.58,-678.2 0,-233.54 -273.97,-496.28 -273.97,-781.48l0 -574.88c0,-489.5 582.4,-697.96 1176.7,-759.03 939.14,-116.27 1313.17,171.7 1313.17,754.58 1.52,302.25 -41.08,622.18 -63.67,943.14 -17.56,249.41 19.91,249.56 137.78,13.54l1203.1 -2284.99c41.41,-77.21 -0.28,-154.44 -131.79,-133.97zm1683.47 3951.97l1738.92 0c155.33,0 60.53,-149.52 37.05,-223.44l-714.07 -1705.6c-40.43,-76.36 -99.94,-56.14 -128.01,0l-978.77 1761.76c-26.58,55.76 -105.95,167.28 44.88,167.28zm1589.54 -3806.1c-13.83,316.6 -2.9,682.72 67.37,860.1l1765.11 4347.66c37.34,91.46 89.2,199.27 150.45,260.52l395.23 390.77c103.43,113.41 -50.65,213.34 -242.54,213.34l-790.48 0c-108.38,0 -264.03,-139.37 -321.13,-271.73l-586.78 -1676.28c-19.44,-53.24 -68.8,-80.8 -127.17,-80.8l-2085.11 0c-68.02,0 -120.02,40.51 -143.89,80.76l-1024.13 1751.62c-53.39,91.62 -132.81,175.64 -208.85,238.04l-447.59 346.14c-48.45,32.33 -94.1,-79.63 -57.78,-157.35l3115.97 -5613.26c145.23,-256.01 282.04,-506.94 427.26,-758.46 32.59,-48.32 118.52,-21.98 114.06,68.93zm4941.92 100.89l2298.43 0c1499.38,0 2278.9,755.41 2278.9,1540.66 -12.39,836.74 -549.92,1317.21 -1496.52,1555.12 -55.62,14.9 -9.72,69.61 29.19,117.9l1434.98 1729.19c369.03,388.14 809.89,679.74 1262.03,925.23 61.76,32.58 79.72,107.79 0,107.79l-1446.22 0c-128.01,-4.09 -267.26,-80.13 -361.56,-198.76l-1867.31 -2466.84c-77.47,-92.44 -164.16,-220.07 -301.15,-220.07l-494.95 0c-47.15,0 -80.85,28.25 -80.85,125.75l0 2535.37c0,204.33 -50.52,253.77 -215.65,253.77l-1342.93 0c-80.1,0 -88.58,-51.47 -50.69,-99.9 66.14,-84.58 440.08,-164.03 577.73,-434.23 31.8,-62.42 45.61,-135.27 45.61,-238.44l0 -4560.97c0,-283.37 -155.37,-347.01 -282.93,-488.6 -83.13,-92.29 -184.3,-182.97 13.89,-182.97zm1255.68 2611.98l0 -1971.68c0,-120.44 66.64,-166.18 242.49,-166.18l707.39 0c701.3,8.55 1239.63,371.72 1239.63,1055.5 0,679.05 -458.3,1223.86 -1183.48,1230.65l-824.17 0c-100.79,1.83 -181.86,-39.32 -181.86,-148.29zm6843.62 -4623.78l1291.25 689.41c65.28,35.74 78.98,130.65 80.83,218.96l0 2036.86c0,110.79 70.71,108.92 136.97,42.66 1908.54,-1658.65 3791.01,-3336.87 5627.68,-5049.42 151.52,-156.33 280.8,-45.02 143.72,125.77 -1370.22,1822.77 -2887.47,3544.51 -4477.92,5178.56 -41.76,46.98 -42.08,81.22 0,110.04 1404.3,1193.96 2808.61,2387.92 4212.91,3581.88 401.97,322.64 857.84,690.17 1360.88,907.26 60.07,40.42 107.78,175.16 0,175.16l-1765.11 0c-99.38,0 -219.52,-87.01 -309.91,-161.69 -1589.95,-1441.35 -3179.89,-2882.7 -4769.85,-4324.06 -76.71,-59.51 -193.12,-198.74 -193.12,0l17.97 4283.68c0,100.68 -40.06,170.67 -179.68,170.67l-1742.66 0c-229.06,0 -81.97,-140.34 0,-168.4 264.62,-86.45 716.37,-426.67 716.37,-640l0 -6775.23c0,-169.43 -121.27,-182 -318.89,-336.86 -52.17,-46.46 17.69,-140.37 168.56,-65.25z"/>
 </g>
</svg>
