<?xml version="1.0" encoding="UTF-8"?>
<!DOCTYPE svg PUBLIC "-//W3C//DTD SVG 1.1//EN" "http://www.w3.org/Graphics/SVG/1.1/DTD/svg11.dtd">
<!-- Creator: CorelDRAW 2018 (64-Bit) -->
<svg xmlns="http://www.w3.org/2000/svg" xml:space="preserve" width="48.4873mm" height="49.8604mm" version="1.1" style="shape-rendering:geometricPrecision; text-rendering:geometricPrecision; image-rendering:optimizeQuality; fill-rule:evenodd; clip-rule:evenodd"
viewBox="0 0 7871.15 8094.05"
 xmlns:xlink="http://www.w3.org/1999/xlink">
 <defs>
  <style type="text/css">
   <![CDATA[
    .fil0 {fill:#2B2A29}
   ]]>
  </style>
 </defs>
 <g id="Katman_x0020_1">
  <metadata id="CorelCorpID_0Corel-Layer"/>
  <path class="fil0" d="M1962.75 5203.27c-228.79,-297.32 -381.99,-570.25 -500.2,-831.88 147.11,-160.06 188.57,-424.41 417.26,-708.83 -464.19,-606.22 -1313.35,-262.23 -1313.35,358.42 0,490.96 463.37,1014.15 1396.29,1182.3zm3945.65 0c228.81,-297.32 381.99,-570.25 500.2,-831.88 -147.09,-160.06 -188.57,-424.41 -417.26,-708.83 464.19,-606.22 1313.35,-262.23 1313.35,358.42 0,490.96 -463.37,1014.15 -1396.29,1182.3zm-2289.79 -4719.77c0,254.12 159.67,287.58 159.67,706.17 -12.48,244 17.91,853.41 -106.69,1030.53 -31.88,45.32 -61.46,95.63 -100.89,95.63 -99.33,0 -27.04,-422.64 -449.67,-422.64 -150.79,0 -388.47,112.34 -388.47,377.17 0,186.29 110.87,264.82 194.23,264.82 85.6,0 168.96,-114.56 168.96,-185.91 9.76,-91.83 -118.84,-283.55 49.24,-283.55 129.92,0 190.24,189.48 190.24,314.3 0,150.22 -62.09,362.44 -360.54,362.44 -216.83,0 -364.52,-264.82 -364.52,-457.41 0,-752.08 1043.05,-447.59 1043.05,-1132.8 0,-308.52 -203.11,-451.39 -380.5,-451.39 -157.89,0 -345.9,93.85 -345.9,333.69 0,116.34 121.07,248.1 215.53,248.1 86.69,0 226.15,-101.43 226.15,-158.49 7.55,-43.25 -84.69,-129.74 22.61,-129.74 70.97,0 81.15,75.34 81.15,123.05 0,356.42 -625.26,382.85 -984.54,611.29 -263.81,167.69 -370.12,527.88 -270.19,818.9 22.43,65.31 85.58,188.76 -61.23,196.34 -153.57,7.92 -350.51,-338.56 -900.44,-338.56 -640.67,0 -1255.87,478.25 -1255.87,1198.34 0,1039.82 584.92,1487.14 1377.8,1977.41 181.33,112.12 329.07,169.36 325.07,387.15 -5.47,265.97 -302.06,290.08 -346.26,201.41 -46.93,-94.11 45.78,-282.98 -135.32,-282.98 -187.51,0 -347.74,649.55 276.68,625.47 530.65,-20.49 506.42,-140.47 717.11,-317.87 -65.16,422.07 40.75,733.04 376.5,894.75 -112.04,-446.44 -128.91,-771.28 99.79,-782.4 78.63,4.69 102.73,73.13 68.73,209.49 -45.79,183.92 -40.73,229.09 70.44,405.35 217.15,344.33 695.89,691.5 683.02,859.02 0,159.17 -188.89,161.81 -188.89,224.69 126.77,158.1 328.82,108.34 509.6,-175.81 35.55,-55.88 167.06,-55.88 202.61,0 180.78,284.15 382.83,333.91 509.6,175.81 0,-62.87 -188.89,-65.52 -188.89,-224.69 -12.87,-167.53 465.88,-514.7 683.04,-859.02 111.17,-176.26 116.23,-221.42 70.42,-405.35 -33.99,-136.36 -9.9,-204.8 68.73,-209.49 228.71,11.12 211.83,335.97 99.8,782.4 335.74,-161.72 441.65,-472.68 376.5,-894.75 210.68,177.4 186.46,297.38 717.1,317.87 624.42,24.07 464.19,-625.47 276.68,-625.47 -181.1,0 -88.39,188.88 -135.32,282.98 -44.19,88.67 -340.79,64.56 -346.26,-201.41 -3.99,-217.79 143.76,-275.03 325.09,-387.15 792.86,-490.27 1377.78,-937.59 1377.78,-1977.41 0,-720.08 -615.18,-1198.34 -1255.87,-1198.34 -549.91,0 -746.87,346.49 -900.44,338.56 -146.82,-7.58 -83.65,-131.04 -61.23,-196.34 99.95,-291.02 -6.38,-651.2 -270.19,-818.9 -359.28,-228.44 -984.54,-254.86 -984.54,-611.29 0,-47.71 10.19,-123.05 81.15,-123.05 107.32,0 15.08,86.49 22.61,129.74 0,57.06 139.46,158.49 226.16,158.49 94.45,0 215.51,-131.75 215.51,-248.1 0,-239.85 -188.02,-333.69 -345.9,-333.69 -177.37,0 -380.48,142.87 -380.48,451.39 0,685.21 1043.03,380.72 1043.03,1132.8 0,192.59 -147.68,457.41 -364.52,457.41 -298.45,0 -360.53,-212.22 -360.53,-362.44 0,-124.82 60.31,-314.3 190.22,-314.3 168.08,0 39.48,191.72 49.24,283.55 0,71.35 83.37,185.91 168.96,185.91 83.36,0 194.23,-78.52 194.23,-264.82 0,-264.83 -237.67,-377.17 -388.47,-377.17 -422.6,0 -350.33,422.64 -449.67,422.64 -39.43,0 -69.01,-50.31 -100.89,-95.63 -124.59,-177.12 -94.19,-786.53 -106.69,-1030.53 0,-418.6 159.67,-452.05 159.67,-706.17 0,-644.66 -633.93,-644.66 -633.93,0zm-452.85 5256.08c-659.87,522.52 -1159.99,-53.96 -623.28,-628.56 119.38,277.49 318.42,493.71 623.28,628.56zm-76.23 -2622.66c-636.79,-502.99 -1081.88,36.2 -568.45,591.11 136.98,-265.77 278.11,-446.6 568.45,-591.11zm1615.86 2622.66c659.87,522.52 1159.98,-53.96 623.28,-628.56 -119.4,277.49 -318.43,493.71 -623.28,628.56zm76.23 -2622.66c636.77,-502.99 1081.88,36.2 568.45,591.11 -136.98,-265.77 -278.11,-446.6 -568.45,-591.11zm-846.04 3835.68c-135.58,-155.6 -196.38,-306.57 -368.82,-464.42 -73.89,-67.64 -217.32,-246.85 -305.27,-242.38 -118.28,6.04 -145.71,188.1 -143.08,264.1 9.89,526.87 581.79,724.01 817.17,1086 235.38,-361.99 807.27,-559.13 817.16,-1086 2.65,-76 -24.79,-258.06 -143.08,-264.1 -87.95,-4.46 -231.38,174.74 -305.27,242.38 -172.45,157.85 -233.23,308.82 -368.81,464.42zm-1385.6 -2912.97c59.74,0 115.86,15.05 164.57,41.41 110.55,-467.23 482.3,-833.41 952.58,-935.94 -11.48,-30.06 -17.78,-62.58 -17.78,-96.52 0,-153.39 128.15,-277.74 286.2,-277.74 158.1,0 286.23,124.35 286.23,277.74 0,33.94 -6.28,66.44 -17.76,96.52 470.28,102.5 842.04,468.71 952.59,935.94 48.7,-26.36 104.8,-41.41 164.53,-41.41 186.9,0 338.39,147.01 338.39,328.35 0,181.33 -151.49,328.34 -338.39,328.34 -59.2,0 -114.87,-14.77 -163.28,-40.71 -109.54,472.26 -485.69,842.29 -961.33,942.92 16.22,34.84 25.24,73.5 25.24,114.22 0,153.37 -128.13,277.72 -286.23,277.72 -158.05,0 -286.2,-124.35 -286.2,-277.72 0,-40.71 9.04,-79.38 25.24,-114.22 -475.62,-100.63 -851.78,-470.66 -961.31,-942.92 -48.42,25.94 -104.09,40.71 -163.31,40.71 -186.86,0 -338.35,-147.01 -338.35,-328.34 0,-181.34 151.49,-328.35 338.35,-328.35zm1119.78 -550.69c-65.91,195.29 10.19,534.66 92.22,913.45 16.61,76.7 -24.37,42.21 -54.54,7.34 -124.46,-143.86 -183.92,-438.29 -197.63,-842.29 -2.35,-69.76 11.96,-69.76 -61.28,-56.09 -366.88,68.46 -307.87,433.76 -39.85,996.73 6.72,14.11 10.11,78.44 -46.98,22.68 -120.87,-118.07 -214.52,-327.77 -277.28,-641.07 -14.12,-70.49 -2.45,-80.5 -56.31,-20.41 -165.76,184.91 -177.17,415.41 299.82,897.9 63.03,63.8 -9.59,49.56 -49.77,30.83 -149.7,-69.79 -303.81,-197.53 -381.81,-374.03 -27.87,-63.1 -17.6,-105.45 -77.5,-24.38 -112.09,151.67 16.8,373.89 530.23,671.11 72.45,41.93 566.09,393.86 586.51,382.87 20.41,10.99 514.05,-340.93 586.51,-382.87 513.41,-297.22 642.31,-519.44 530.22,-671.11 -59.9,-81.07 -49.61,-38.72 -77.5,24.38 -78,176.51 -232.11,304.25 -381.81,374.03 -40.16,18.73 -112.81,32.97 -49.76,-30.83 476.99,-482.49 465.56,-712.99 299.8,-897.9 -53.86,-60.1 -42.19,-50.08 -56.3,20.41 -62.77,313.31 -156.41,523.01 -277.3,641.07 -57.08,55.76 -53.68,-8.57 -46.98,-22.68 268.01,-562.98 327.04,-928.28 -39.85,-996.73 -73.25,-13.67 -58.91,-13.67 -61.26,56.09 -13.7,404 -73.16,698.43 -197.64,842.29 -30.16,34.87 -71.1,69.38 -54.54,-7.34 84.01,-389.07 161.68,-736.61 86.38,-929.07 -86.09,-219.98 -449.91,-209.35 -525.78,15.62z"/>
 </g>
</svg>
