<?xml version="1.0" encoding="UTF-8"?>
<!DOCTYPE svg PUBLIC "-//W3C//DTD SVG 1.1//EN" "http://www.w3.org/Graphics/SVG/1.1/DTD/svg11.dtd">
<!-- Creator: CorelDRAW 2018 (64-Bit) -->
<svg xmlns="http://www.w3.org/2000/svg" xml:space="preserve" width="49.8604mm" height="49.8604mm" version="1.1" style="shape-rendering:geometricPrecision; text-rendering:geometricPrecision; image-rendering:optimizeQuality; fill-rule:evenodd; clip-rule:evenodd"
viewBox="0 0 658.49 658.49"
 xmlns:xlink="http://www.w3.org/1999/xlink">
 <defs>
  <style type="text/css">
   <![CDATA[
    .fil0 {fill:#2B2A29}
   ]]>
  </style>
 </defs>
 <g id="Katman_x0020_1">
  <metadata id="CorelCorpID_0Corel-Layer"/>
  <path class="fil0" d="M249.52 117.3c-62.59,29.78 -104.37,73.23 -125.99,129.94 -13.43,-18.44 -21.69,-37.75 -24.58,-57.95 23.81,-39.94 55.79,-73.75 98.33,-99.65l52.24 27.66zm156.19 422.95c62.59,-29.78 104.38,-73.23 125.99,-129.94 13.43,18.44 21.69,37.75 24.58,57.95 -23.81,39.94 -55.8,73.75 -98.33,99.65l-52.24 -27.66zm7.95 -422.08c62.59,29.78 104.38,73.23 125.99,129.94 13.43,-18.44 21.69,-37.75 24.58,-57.95 -23.81,-39.94 -55.79,-73.75 -98.33,-99.65l-52.24 27.66zm-167.42 423.3c-62.59,-29.78 -104.37,-73.23 -125.99,-129.94 -13.43,18.44 -21.69,37.75 -24.58,57.95 23.81,39.94 55.79,73.75 98.33,99.65l52.24 -27.66zm82.99 -509.86c164.38,0 297.64,133.26 297.64,297.64 0,164.38 -133.26,297.64 -297.64,297.64 -164.38,0 -297.64,-133.26 -297.64,-297.64 0,-164.38 133.26,-297.64 297.64,-297.64zm0 -31.61c181.84,0 329.24,147.41 329.24,329.24 0,181.84 -147.41,329.24 -329.24,329.24 -181.84,0 -329.24,-147.41 -329.24,-329.24 0,-181.84 147.41,-329.24 329.24,-329.24zm-54.77 489.26c0,0 94.82,-23.27 127.31,-63.65 32.49,-40.39 2.53,-67.93 2.53,-67.93 0,0 -9.33,-3.29 -10.21,2.52 0,0 12.18,11.2 4.39,27.44 -7.79,16.24 -27.11,15.58 -27.11,15.58 0,0 -27.44,-3.95 -27.22,-28.75 0.22,-24.8 12.29,-42.58 12.29,-42.58 0,0 17.34,-25.02 56.41,-31.39 39.07,-6.37 63.87,29.63 63.87,29.63 0,0 23.27,33.36 7.02,79.02 -16.24,45.65 -84.73,77.26 -84.73,77.26 0,0 -44.78,19.76 -124.56,2.86zm-37.97 -290.39c0,0 -80.78,39.51 -77.7,143.55 3.07,104.04 69.8,122.92 69.8,122.92 0,0 56.63,14.93 89.12,-35.12 32.49,-50.05 -1.76,-91.75 -1.76,-91.75 0,0 -23.7,-30.51 -64.31,-17.34 0,0 -28.97,11.85 -23.71,44.78 5.27,32.92 30.29,19.98 30.29,19.98 0,0 -3.51,-16.24 7.46,-16.46 10.97,-0.22 12.73,19.32 0.22,29.19 -12.51,9.88 -18.66,8.56 -18.66,8.56 0,0 -25.46,1.32 -39.95,-32.92 -14.49,-34.24 8.34,-83.41 8.34,-83.41 0,0 -1.32,-40.39 20.85,-91.97zm247.48 117.1c-0.7,0.54 6.44,-75.57 -56.35,-122.3 -36.77,-27.35 -101.91,-46.79 -143.1,-21.22 -45.1,27.99 -43.06,114.58 18.4,132.23 36.59,10.51 80.94,2.66 74.38,-39.63 -5.57,-26.09 -35.2,-32.86 -43.46,-13.17 0,0 -12.95,-17.56 10.53,-29.85 45.56,-23.84 119.56,70.76 139.6,93.94zm-435.35 -0.55l53.38 0c7.61,0 13.83,6.22 13.83,13.83l0 0c0,7.61 -6.22,13.83 -13.83,13.83l-53.38 0c1.82,37.58 11.04,73.21 26.2,105.49 1.09,-2.58 28.46,-67.13 48.25,-91.22 20.19,-24.58 3.07,-47.41 3.07,-47.41 0,0 -35.94,-57.42 -51.33,-99.99 -15.16,32.28 -24.38,67.91 -26.2,105.48zm266.78 294.44l0 -53.38c0,-7.61 6.22,-13.83 13.83,-13.83l0 0c7.61,0 13.83,6.22 13.83,13.83l0 53.38c37.58,-1.82 73.21,-11.04 105.49,-26.2 -2.59,-1.09 -67.13,-28.47 -91.22,-48.25 -24.58,-20.19 -47.41,-3.07 -47.41,-3.07 0,0 -57.42,35.94 -99.99,51.33 32.28,15.16 67.91,24.38 105.48,26.2zm294.44 -294.44l-53.38 0c-7.61,0 -13.83,6.22 -13.83,13.83l0 0c0,7.61 6.22,13.83 13.83,13.83l53.38 0c-1.82,37.58 -11.04,73.21 -26.2,105.49 -1.09,-2.58 -28.46,-67.13 -48.25,-91.22 -20.19,-24.58 -3.07,-47.41 -3.07,-47.41 0,0 35.94,-57.42 51.33,-99.99 15.16,32.28 24.38,67.91 26.2,105.48zm-294.44 -266.78l0 53.38c0,7.6 6.22,13.83 13.83,13.83l0 0c7.61,0 13.83,-6.22 13.83,-13.83l0 -53.38c37.58,1.82 73.21,11.04 105.49,26.2 -2.59,1.09 -67.13,28.47 -91.22,48.25 -24.58,20.19 -47.41,3.07 -47.41,3.07 0,0 -57.42,-35.94 -99.99,-51.33 32.28,-15.17 67.91,-24.38 105.48,-26.2z"/>
 </g>
</svg>
