<?xml version="1.0" encoding="UTF-8"?>
<!DOCTYPE svg PUBLIC "-//W3C//DTD SVG 1.1//EN" "http://www.w3.org/Graphics/SVG/1.1/DTD/svg11.dtd">
<!-- Creator: CorelDRAW 2018 (64-Bit) -->
<svg xmlns="http://www.w3.org/2000/svg" xml:space="preserve" width="42.806mm" height="39.8883mm" version="1.1" style="shape-rendering:geometricPrecision; text-rendering:geometricPrecision; image-rendering:optimizeQuality; fill-rule:evenodd; clip-rule:evenodd"
viewBox="0 0 478.08 445.49"
 xmlns:xlink="http://www.w3.org/1999/xlink">
 <defs>
  <style type="text/css">
   <![CDATA[
    .fil0 {fill:#2B2A29}
   ]]>
  </style>
 </defs>
 <g id="Katman_x0020_1">
  <metadata id="CorelCorpID_0Corel-Layer"/>
  <path class="fil0" d="M135.64 12.31c30.47,27.64 4.77,58.26 -22.57,58.26 -47.48,1.69 -85.1,-3.08 -113.07,-17.33 11.25,13.66 18.73,29.28 35.94,36.85 21.12,9.29 51.94,7.24 83.27,10.95 -24.04,4.06 -54.53,2.52 -87.54,-1.2 6.55,8.98 14.66,17.12 24.2,24.5 21.22,0.04 42.61,-1.24 64.23,-4.18 -11.55,6.83 -35.76,10.12 -60.95,13.15 6.41,7.79 14.01,14.91 23.6,20.91 19.1,-4.47 34.08,-10.47 43.62,-18.52 0.39,6.91 -16.01,16.29 -38.54,26.59 9,2.56 16.9,6.2 22.11,12.55 9.76,-7.71 18.33,-15.89 25.1,-24.8 3.88,6.33 -9.83,20.54 -28.68,37.05 6.53,-0.27 13.39,0.87 20.91,4.78 7.93,-6.84 13.49,-15.18 17.03,-24.8 3.37,7.95 -3.26,22.52 -13.44,39.44 16.75,11.4 33.25,29.03 49.59,50.79l-0.3 -63.34c-25.11,-17.29 -39.12,-42.96 -41.53,-77.38 0,-34.16 20.02,-29.48 20.02,-66.62 0,-18.85 -7.76,-30.69 -23,-37.64zm206.8 0c-30.47,27.64 -4.77,58.26 22.57,58.26 47.49,1.69 85.1,-3.08 113.07,-17.33 -11.25,13.66 -18.73,29.28 -35.94,36.85 -21.12,9.29 -51.94,7.24 -83.27,10.95 24.04,4.06 54.53,2.52 87.54,-1.2 -6.55,8.98 -14.66,17.12 -24.2,24.5 -21.22,0.04 -42.62,-1.24 -64.23,-4.18 11.55,6.83 35.76,10.12 60.95,13.15 -6.41,7.79 -14.01,14.91 -23.6,20.91 -19.1,-4.47 -34.08,-10.47 -43.62,-18.52 -0.39,6.91 16.01,16.29 38.54,26.59 -9,2.56 -16.9,6.2 -22.11,12.55 -9.76,-7.71 -18.33,-15.89 -25.1,-24.8 -3.88,6.33 9.83,20.54 28.68,37.05 -6.53,-0.27 -13.39,0.87 -20.91,4.78 -7.93,-6.84 -13.49,-15.18 -17.03,-24.8 -3.37,7.95 3.26,22.52 13.44,39.44 -16.75,11.4 -33.25,29.03 -49.59,50.79l0.3 -63.34c25.11,-17.29 39.12,-42.96 41.53,-77.38 0,-34.16 -20.02,-29.48 -20.02,-66.62 0,-18.85 7.76,-30.69 23,-37.64zm-163.77 123.81c0,0 8.22,9.56 17.33,12.25 9.11,2.69 12.7,6.57 13.89,14.94 1.2,8.37 6.12,19.72 15.39,26.14 0,0 -18.52,-6.57 -26.89,2.99 0,0 1.34,-7.36 11.05,-11.91 0,0 -6.35,-3.03 -5.83,-16.32 0.52,-13.3 -19.79,-11.58 -24.95,-28.08zm120.73 0c0,0 -8.22,9.56 -17.33,12.25 -9.11,2.69 -12.7,6.57 -13.89,14.94 -1.2,8.37 -6.12,19.72 -15.39,26.14 0,0 18.52,-6.57 26.89,2.99 0,0 -1.34,-7.36 -11.05,-11.91 0,0 6.35,-3.03 5.83,-16.32 -0.52,-13.3 19.79,-11.58 24.95,-28.08zm-79.78 -136.12c6.38,3.52 10.12,9.33 8.92,19.42l-24.09 0c2.68,7.88 3.72,16.51 3.81,25.58 4.78,-8.06 11.18,-14.17 20.54,-16.66l0 10.38 -4.63 2.46 4.41 3.66 0 49.07 -8.89 10.76 0 7.54 8.81 0 0 31.3c0,0 -12.7,1.05 -22.26,-4.71 -9.56,-5.75 -26.07,-16.43 -26.07,-16.43 0,0 -9.11,-8.59 -10.16,-19.94 0,0 -13.37,20.32 -1.42,35.25 11.95,14.94 18.67,21.81 18.67,31.52 0,9.71 -2.39,29.14 11.5,32.86l0 10.68 -10.16 9.19c0,0 6.72,10.68 6.72,24.87 0,0 6.42,-18.22 16.73,-18.22l0 149.23 23.9 67.67 0 -236.7 -16.66 0c0,0 -2.76,-0.07 -5.75,-2.24 0,0 3.36,-4.78 9.78,-4.78 6.42,0 12.47,0 12.47,0l0 -21.25 -11.39 -3.81 14.6 -14.6 14.6 14.6 -11.39 3.81 0 21.25c0,0 6.05,0 12.47,0 6.42,0 9.78,4.78 9.78,4.78 -2.99,2.17 -5.75,2.24 -5.75,2.24l-16.66 0 0 236.7 23.9 -67.67 0 -149.23c10.31,0 16.73,18.22 16.73,18.22 0,-14.19 6.72,-24.87 6.72,-24.87l-10.16 -9.19 0 -10.68c13.9,-3.72 11.5,-23.15 11.5,-32.86 0,-9.71 6.72,-16.58 18.67,-31.52 11.95,-14.94 -1.42,-35.25 -1.42,-35.25 -1.05,11.35 -10.16,19.94 -10.16,19.94 0,0 -16.51,10.68 -26.07,16.43 -9.56,5.75 -22.26,4.71 -22.26,4.71l0 -31.3 8.81 0 0 -7.54 -8.89 -10.76 0 -49.07 4.41 -3.66 -4.63 -2.46 0 -10.38c9.36,2.49 15.76,8.59 20.54,16.66 0.09,-9.07 1.13,-17.7 3.81,-25.58l-24.09 0c-1.19,-10.09 2.55,-15.9 8.93,-19.42 -12.94,0 -25.89,0 -38.83,0z"/>
 </g>
</svg>
