<?xml version="1.0" encoding="UTF-8"?>
<!DOCTYPE svg PUBLIC "-//W3C//DTD SVG 1.1//EN" "http://www.w3.org/Graphics/SVG/1.1/DTD/svg11.dtd">
<!-- Creator: CorelDRAW 2018 (64-Bit) -->
<svg xmlns="http://www.w3.org/2000/svg" xml:space="preserve" width="39.8883mm" height="39.8883mm" version="1.1" style="shape-rendering:geometricPrecision; text-rendering:geometricPrecision; image-rendering:optimizeQuality; fill-rule:evenodd; clip-rule:evenodd"
viewBox="0 0 551.54 551.54"
 xmlns:xlink="http://www.w3.org/1999/xlink">
 <defs>
  <style type="text/css">
   <![CDATA[
    .fil0 {fill:#2B2A29}
   ]]>
  </style>
 </defs>
 <g id="Katman_x0020_1">
  <metadata id="CorelCorpID_0Corel-Layer"/>
  <path class="fil0" d="M333.23 110.89c0,0 -24.97,21.81 0.29,50.93 0,0 14.35,10.19 30.85,2.87 0,0 3.01,-2.01 5.17,-8.11 2.15,-6.1 9.54,-4.23 11.98,-2.3 2.44,1.94 2.44,9.61 -1.79,10.76 -4.23,1.15 -13.63,5.52 -3.73,24.61 9.9,19.08 44.48,25.39 52.52,55.24 0,0 0.72,12.48 -5.6,17.22 0,0 -2.87,3.08 -0.86,5.95 2.01,2.87 8.75,20.37 -7.32,29.27 0,0 2.51,-20.66 -6.02,-23.03 0,0 -9.25,4.66 -7.89,15.28 0,0 0.5,5.02 -4.38,3.3 -4.88,-1.72 -5.16,-9.76 -3.08,-14.78 2.08,-5.02 4.09,-15.71 -1.94,-22.6 -3.6,-4.12 -6.33,-7.36 -7.95,-9.31 -4.33,-5.22 -11.53,-6.91 -13.43,1.85 -0.93,4.31 -0.82,8.19 -0.67,12.53 0.28,7.95 0.32,15.47 3.1,17.6 4.3,3.3 30.28,29.56 29.99,61.98 -0.29,32.43 -12.34,61.7 -51.37,63.99 0,0 -23.96,-2.87 -36.59,-6.17 -12.63,-3.3 -31.42,-0.72 -41.61,6.03 -10.19,6.74 -3.73,17.22 2.44,20.52 6.17,3.3 21.38,7.32 38.6,-10.76 0,0 -1,36.01 -49.5,33.14 0,0 -16.07,2.15 -33.86,-13.06 -17.79,-15.21 -40.18,-29.27 -57.68,-36.16 -17.51,-6.89 -85.59,-106.32 -41.97,-198.72 -7.66,56.99 -0.49,92.81 50.72,119.84 17.91,9.45 79.7,34.9 90.1,4.84 0,0 2.15,-8.9 -6.17,-12.05 -8.32,-3.16 -12.2,3.01 -12.2,3.01 0,0 -4.02,-15.64 14.06,-12.05 18.08,3.59 18.51,23.67 18.51,23.67 0,0 4.02,21.09 -13.2,37.74 0,0 30.56,-4.02 33.57,-40.46 0,0 -0.29,-29.13 -38.31,-43.05 0,0 -35.73,-12.7 -40.75,32 0,0 -19.51,9.47 -53.66,-24.1 -34.15,-33.57 -26.98,-61.12 -26.98,-61.12 0,0 2.08,-2.22 3.23,0.5 1.12,2.67 -3.15,41.27 50.94,52.17 1.22,0.25 3.41,0.37 4.05,-0.59 0,0 -6.64,-8.61 -6.49,-13.34 0,0 14.03,10.83 26.01,4.23 0,0 -59.22,-27.26 -55.2,-88.1 4.02,-60.84 57.68,-70.59 57.68,-70.59 0,0 42.76,-6.03 58.25,33.29 0,0 3.73,27.41 -15.64,30.99 0,0 18.65,-27.12 -13.77,-41.9 -32.43,-14.78 -45.91,21.67 -45.91,21.67 0,0 -15.21,46.92 26.54,61.7 0,0 -6.46,-30.27 -0.14,-45.77 0,0 4.88,38.74 21.52,39.03 0,0 7.46,-6.6 -6.6,-27.26 0,0 20.09,-2.58 23.68,27.98 3.59,30.56 2.73,39.03 14.64,46.34 11.91,7.32 27.55,8.89 42.76,46.49 15.21,37.59 -0.86,64.28 -0.86,64.28 0,0 24.39,-4.88 28.41,-36.73 0,0 0.72,-23.53 -13.92,-28.55 0,0 -4.38,-1.08 -7.96,-1.15 -3.59,-0.07 -7.53,-4.88 -6.89,-6.96 0.65,-2.08 6.17,-1.87 10.04,-9.4 3.87,-7.53 1.72,-24.75 1.72,-24.75 0,0 -5.02,-15.93 -16.36,-26.9 -11.34,-10.98 -8.61,-19.23 -8.61,-19.23 0,0 14.28,7.68 23.89,19.44 0,0 7.17,-17.79 23.24,-21.67 -1.43,-17.23 -37.64,-8.96 -51.82,-52.79 -5.79,-17.89 -4.35,-48.95 20.18,-48.78zm-114.45 239.88c0,0 -55.14,-3.27 -75.83,-30.34 -2.78,-3.63 -4.88,-8.19 -5.38,-12.77 0,0 20.48,16.93 29.52,20.23 7.05,2.57 10.81,8.38 16.75,11.76 1.67,0.95 6.97,1.64 9.11,2.08 9.76,2.01 25.82,9.04 25.82,9.04zm-26.18 13.26c4.4,3.84 9.45,6.2 13.46,9.04 21.43,15.2 38.73,14.52 52.18,-2.87 -29.8,2.06 -44.81,-7.08 -65.64,-6.17zm217.72 -114.42c-1.01,-1.15 -1.97,-2.89 -2.33,-5.46 -0.83,-5.99 4.96,-6.09 7.2,-0.96 0.95,2.18 1.7,5.27 -0.19,7.37 -1.73,1.92 -3.01,0.96 -4.69,-0.95zm-134.55 -169.33c107.96,0 195.48,87.52 195.48,195.48 0,107.96 -87.52,195.48 -195.48,195.48 -107.96,0 -195.48,-87.52 -195.48,-195.48 0,-107.96 87.52,-195.48 195.48,-195.48zm0 -13.42c17.6,0 34.69,2.18 51.03,6.28 -1.16,-2.48 -1.81,-5.24 -1.81,-8.16 0,-10.62 8.61,-19.23 19.23,-19.23 10.62,0 19.23,8.61 19.23,19.23 0,7.24 -4,13.55 -9.92,16.82 23.31,9.35 44.54,22.79 62.81,39.42 0.27,-6.83 4.19,-13.3 10.77,-16.52 9.54,-4.67 21.05,-0.72 25.72,8.82 4.67,9.54 0.72,21.05 -8.82,25.72 -2.72,1.33 -5.6,1.96 -8.43,1.96 14.35,17.02 26.03,36.37 34.39,57.4 3.24,-6.04 9.62,-10.15 16.95,-10.15 10.62,0 19.23,8.61 19.23,19.23 0,10.62 -8.61,19.23 -19.23,19.23 -3.04,0 -5.92,-0.71 -8.47,-1.96 4.07,16.27 6.24,33.29 6.24,50.82 0,17.53 -2.16,34.55 -6.23,50.81 2.55,-1.25 5.42,-1.96 8.46,-1.96 10.62,0 19.23,8.61 19.23,19.23 0,10.62 -8.61,19.23 -19.23,19.23 -7.34,0 -13.71,-4.11 -16.95,-10.15 -8.17,20.55 -19.52,39.5 -33.42,56.24 6.85,-0.04 13.5,3.6 17.01,10.04 5.07,9.33 1.62,21 -7.7,26.08 -9.33,5.07 -21,1.62 -26.08,-7.7 -1.44,-2.65 -2.19,-5.49 -2.32,-8.31 -18.52,17.1 -40.14,30.89 -63.92,40.44 5.92,3.28 9.93,9.58 9.93,16.83 0,10.62 -8.61,19.23 -19.23,19.23 -10.62,0 -19.23,-8.61 -19.23,-19.23 0,-2.92 0.65,-5.68 1.81,-8.16 -16.33,4.1 -33.42,6.28 -51.03,6.28 -17.31,0 -34.13,-2.11 -50.22,-6.08 1.1,2.43 1.72,5.12 1.72,7.96 0,10.62 -8.61,19.23 -19.23,19.23 -10.62,0 -19.23,-8.61 -19.23,-19.23 0,-7.12 3.87,-13.34 9.63,-16.66 -23.18,-9.24 -44.32,-22.52 -62.55,-38.96 -0.48,6.6 -4.36,12.78 -10.73,15.9 -9.54,4.67 -21.05,0.72 -25.72,-8.82 -4.67,-9.54 -0.72,-21.05 8.82,-25.72 2.49,-1.22 5.12,-1.85 7.73,-1.95 -14.53,-17.23 -26.32,-36.84 -34.71,-58.17 -3.32,5.75 -9.54,9.62 -16.66,9.62 -10.62,0 -19.23,-8.61 -19.23,-19.23 0,-10.62 8.61,-19.23 19.23,-19.23 2.9,0 5.64,0.64 8.11,1.79 -3.84,-15.82 -5.87,-32.35 -5.87,-49.35 0,-17.39 2.14,-34.29 6.15,-50.44 -2.35,1.02 -4.94,1.59 -7.66,1.59 -10.62,0 -19.23,-8.61 -19.23,-19.23 0,-10.62 8.61,-19.23 19.23,-19.23 7.03,0 13.18,3.78 16.54,9.41 8.15,-20.27 19.39,-38.97 33.14,-55.52 -6.6,-0.21 -12.92,-3.81 -16.31,-10.03 -5.07,-9.33 -1.62,-21 7.7,-26.08 9.33,-5.07 21,-1.62 26.08,7.7 1.34,2.46 2.08,5.07 2.28,7.69 18.48,-16.91 40,-30.55 63.66,-39.98 -5.75,-3.32 -9.63,-9.54 -9.63,-16.66 0,-10.62 8.61,-19.23 19.23,-19.23 10.62,0 19.23,8.61 19.23,19.23 0,2.84 -0.62,5.53 -1.72,7.96 16.09,-3.97 32.9,-6.08 50.22,-6.08zm0 -66.87c152.3,0 275.77,123.47 275.77,275.77 0,152.3 -123.47,275.77 -275.77,275.77 -152.3,0 -275.77,-123.47 -275.77,-275.77 0,-152.3 123.47,-275.77 275.77,-275.77zm0 28.81c136.39,0 246.95,110.57 246.95,246.95 0,136.39 -110.56,246.95 -246.95,246.95 -136.39,0 -246.95,-110.56 -246.95,-246.95 0,-136.39 110.56,-246.95 246.95,-246.95z"/>
 </g>
</svg>
