<?xml version="1.0" encoding="UTF-8"?>
<!DOCTYPE svg PUBLIC "-//W3C//DTD SVG 1.1//EN" "http://www.w3.org/Graphics/SVG/1.1/DTD/svg11.dtd">
<!-- Creator: CorelDRAW 2018 (64-Bit) -->
<svg xmlns="http://www.w3.org/2000/svg" xml:space="preserve" width="40.2362mm" height="39.8883mm" version="1.1" style="shape-rendering:geometricPrecision; text-rendering:geometricPrecision; image-rendering:optimizeQuality; fill-rule:evenodd; clip-rule:evenodd"
viewBox="0 0 539.23 534.57"
 xmlns:xlink="http://www.w3.org/1999/xlink">
 <defs>
  <style type="text/css">
   <![CDATA[
    .fil0 {fill:#2B2A29}
   ]]>
  </style>
 </defs>
 <g id="Katman_x0020_1">
  <metadata id="CorelCorpID_0Corel-Layer"/>
  <path class="fil0" d="M269.62 132.08c-0.6,0.64 -10.23,19.84 -10.95,21.95 0,0 -8.84,-9.69 -6.15,-23.58 0,0 -8.08,11.03 -12.46,7.83 -4.38,-3.2 -6.99,-29.9 4.46,-42.7 0,0 -16.34,7.75 -19.37,29.64 -3.03,21.9 -3.71,24.59 -9.77,36.55 0,0 19.03,-12.46 34.19,38.91 0,0 2.36,-13.48 5.73,-17.77 0,0 5.35,11.96 4.84,37.39 -0.16,7.93 -0.13,13.87 -1.88,16.54 -4.3,6.58 -12.21,0.33 -16.39,-3 -6.75,-5.37 -17.48,-15.97 -16.3,-29.04 1.72,-19.05 9.26,-29.48 9.26,-29.48 0,0 -16,9.77 -22.23,24.59 0,0 -44.47,-52.72 6.4,-92.13 0,0 -13.14,1.68 -25.43,7.07 -12.3,5.39 -49.52,11.79 -68.05,-8.76 -18.53,-20.55 -17.85,-66.36 34.02,-106.11 -132.53,60.62 -188.35,243.59 -145.19,362.13 0,0 -3.37,-71.08 17.18,-120.93 20.55,-49.86 27.62,-17.52 27.62,-17.52 0,0 2.19,50.19 29.14,71.92 0,0 -6.91,-93.99 27.79,-115.55 0,0 24.59,99.04 54.91,96.68 0,0 -26.95,-45.14 -11.12,-78.83 0,0 9.1,-21.73 23.25,-10.11 14.15,11.62 23.92,28.13 23.92,28.13 0,0 -3.37,26.44 2.69,41.44 0,0 -25.43,-9.77 -44.13,-43.12 0,0 -7.58,45.64 38.06,73.77 0,0 -16,18.87 -33.69,10.44 -17.68,-8.42 -23.92,-28.47 -23.92,-28.47 -13.09,52.74 22.57,126.81 62.49,162.71 0,0 -22.23,-38.74 -14.82,-76.47 7.41,-37.73 48.17,-74.11 48.17,-74.11 0,0 6.07,13.48 4.55,31.67 -1.52,18.19 -12.13,27.96 -12.13,27.96 0,0 -1.77,4.72 0.93,9.52 2.69,4.8 34.36,183.3 34.36,183.3 0,0 31.67,-178.5 34.36,-183.3 2.69,-4.8 0.93,-9.52 0.93,-9.52 0,0 -10.61,-9.77 -12.13,-27.96 -1.52,-18.19 4.55,-31.67 4.55,-31.67 0,0 40.76,36.38 48.17,74.11 7.41,37.73 -14.82,76.47 -14.82,76.47 39.92,-35.89 75.58,-109.97 62.49,-162.71 0,0 -6.23,20.04 -23.92,28.47 -17.68,8.42 -33.69,-10.44 -33.69,-10.44 45.65,-28.13 38.06,-73.77 38.06,-73.77 -18.7,33.35 -44.13,43.12 -44.13,43.12 6.06,-14.99 2.7,-41.44 2.7,-41.44 0,0 9.77,-16.51 23.92,-28.13 14.15,-11.62 23.24,10.11 23.24,10.11 15.83,33.69 -11.12,78.83 -11.12,78.83 30.32,2.36 54.91,-96.68 54.91,-96.68 34.7,21.56 27.79,115.55 27.79,115.55 26.95,-21.73 29.14,-71.92 29.14,-71.92 0,0 7.07,-32.34 27.62,17.52 20.55,49.86 17.18,120.93 17.18,120.93 43.16,-118.54 -12.67,-301.51 -145.19,-362.13 51.88,39.75 52.55,85.56 34.02,106.11 -18.53,20.55 -55.75,14.15 -68.05,8.76 -12.3,-5.39 -25.43,-7.07 -25.43,-7.07 50.87,39.41 6.4,92.13 6.4,92.13 -6.23,-14.82 -22.23,-24.59 -22.23,-24.59 0,0 7.55,10.43 9.26,29.48 1.18,13.06 -9.54,23.67 -16.3,29.04 -4.18,3.32 -12.09,9.57 -16.39,3 -1.75,-2.67 -1.72,-8.61 -1.88,-16.54 -0.5,-25.43 4.84,-37.39 4.84,-37.39 3.37,4.3 5.73,17.77 5.73,17.77 15.16,-51.37 34.19,-38.91 34.19,-38.91 -6.06,-11.96 -6.74,-14.65 -9.77,-36.55 -3.03,-21.9 -19.37,-29.64 -19.37,-29.64 11.45,12.8 8.84,39.5 4.46,42.7 -4.38,3.2 -12.46,-7.83 -12.46,-7.83 2.7,13.9 -6.15,23.58 -6.15,23.58 -0.72,-2.11 -10.46,-21.37 -10.95,-21.95z"/>
 </g>
</svg>
