<?xml version="1.0" encoding="UTF-8"?>
<!DOCTYPE svg PUBLIC "-//W3C//DTD SVG 1.1//EN" "http://www.w3.org/Graphics/SVG/1.1/DTD/svg11.dtd">
<!-- Creator: CorelDRAW 2018 (64-Bit) -->
<svg xmlns="http://www.w3.org/2000/svg" xml:space="preserve" width="52.7922mm" height="39.8883mm" version="1.1" style="shape-rendering:geometricPrecision; text-rendering:geometricPrecision; image-rendering:optimizeQuality; fill-rule:evenodd; clip-rule:evenodd"
viewBox="0 0 547.31 413.53"
 xmlns:xlink="http://www.w3.org/1999/xlink">
 <defs>
  <style type="text/css">
   <![CDATA[
    .fil0 {fill:#2B2A29}
   ]]>
  </style>
 </defs>
 <g id="Katman_x0020_1">
  <metadata id="CorelCorpID_0Corel-Layer"/>
  <path class="fil0" d="M237.69 160.96c-4.48,-23.21 -13.64,-41.95 -27.68,-56.05 -33.42,8.52 -66.48,30.81 -99.45,56.22 0,0 22.38,20.16 -29.56,38.96 -51.95,18.8 -80.99,-5.47 -80.99,-5.47 0,0 18.62,43.4 84.41,35.88 0,0 25.97,1.71 51.26,-14.18 0,0 2.99,-14.84 11.91,-26.51 3.01,-3.93 7.31,-7.82 12.04,-10.43 3.97,-2.2 10.25,-2.27 10.77,-6.01 0.33,-2.33 -0.5,-5.27 0.48,-6.18l15.89 10.68c0,0 -5.89,0.85 -5.04,8.8 0.85,7.95 1.2,11.79 5.47,12.39 4.27,0.6 6.41,3.5 6.66,6.32 0.26,2.82 -2.82,7.09 -5.3,7.95 -2.48,0.85 -1.24,13.16 5.89,14.27 7.13,1.11 18.2,-8.97 18.2,-8.97 0,0 -12.13,-21.45 -10.59,-34.43 0,0 -0.85,-3.42 8.97,-7.86 9.82,-4.44 18.45,-10.42 18.45,-10.42l-16.32 -11.28 -19.99 15.89 -18.24 -10.08c0,0 27.55,-39.22 62.76,0.51zm-223.33 -101.03l191.21 34.86 -33.11 12.6c0,0 -120.38,-14.55 -120.17,-15.34l-37.93 -32.12zm48.36 41.69l100.3 11.28 -18.28 8.71 -53.83 -3.76 -28.19 -16.23zm42.89 24.26l29.9 1.02 -12.81 9.23 -17.09 -10.25zm204.01 35.07c4.48,-23.21 13.64,-41.95 27.68,-56.05 33.42,8.52 66.48,30.81 99.45,56.22 0,0 -22.38,20.16 29.56,38.96 51.95,18.8 80.99,-5.47 80.99,-5.47 0,0 -18.62,43.4 -84.41,35.88 0,0 -25.97,1.71 -51.26,-14.18 0,0 -2.99,-14.84 -11.91,-26.51 -3.01,-3.93 -7.31,-7.82 -12.04,-10.43 -3.97,-2.2 -10.25,-2.27 -10.77,-6.01 -0.33,-2.33 0.5,-5.27 -0.48,-6.18l-15.89 10.68c0,0 5.9,0.85 5.04,8.8 -0.86,7.95 -1.2,11.79 -5.47,12.39 -4.27,0.6 -6.41,3.5 -6.66,6.32 -0.26,2.82 2.82,7.09 5.3,7.95 2.48,0.85 1.24,13.16 -5.89,14.27 -7.13,1.11 -18.2,-8.97 -18.2,-8.97 0,0 12.13,-21.45 10.59,-34.43 0,0 0.85,-3.42 -8.97,-7.86 -9.83,-4.44 -18.45,-10.42 -18.45,-10.42l16.32 -11.28 19.99 15.89 18.24 -10.08c0,0 -27.55,-39.22 -62.75,0.51zm223.33 -101.03l-191.21 34.86 33.11 12.6c0,0 120.38,-14.55 120.17,-15.34l37.93 -32.12zm-48.36 41.69l-100.3 11.28 18.28 8.71 53.83 -3.76 28.19 -16.23zm-42.89 24.26l-29.9 1.02 12.82 9.23 17.09 -10.25zm-168.05 -125.89c-2.96,7 -3.96,20.76 -5.34,30.35 -5.81,40.34 -9.01,67.31 -32.26,80.02 3.35,2.01 14.72,13.01 16.52,16.7 4.87,9.96 0.97,22.91 -5.58,35.33 13.47,-3.01 39.86,-3.01 53.33,0 -6.56,-12.43 -10.45,-25.38 -5.58,-35.33 1.8,-3.69 13.17,-14.68 16.52,-16.7 -23.25,-12.71 -26.45,-39.68 -32.26,-80.02 -1.38,-9.58 -2.38,-23.35 -5.34,-30.35zm0.01 413.53c-9.2,-24.26 -13.61,-52.25 -17.43,-80.27l-16.92 -20.33c6.95,-8.69 15.69,-16.6 20.85,-26.06 9,0 18.01,0 27.01,0 5.15,9.45 13.9,17.37 20.85,26.06l-16.92 20.33c-3.82,28.02 -8.23,56.01 -17.43,80.27zm-5.14 -249.08l10.25 0c1.69,0 3.08,1.38 3.08,3.07l0 9.31c5.01,0.87 9.75,2.52 14.09,4.82l5.71 -7.36c1.04,-1.34 2.98,-1.58 4.31,-0.55l8.1 6.28c1.34,1.04 1.58,2.98 0.55,4.31l-5.71 7.36c2.82,3.1 5.24,6.57 7.17,10.33l8.89 -2.76c1.62,-0.5 3.35,0.41 3.85,2.02l3.04 9.79c0.5,1.62 -0.41,3.35 -2.02,3.85l-8.9 2.76c0.26,2 0.39,4.03 0.39,6.1 0,2.08 -0.13,4.12 -0.39,6.13l8.89 2.77c1.62,0.5 2.53,2.24 2.02,3.85l-3.05 9.79c-0.5,1.62 -2.24,2.53 -3.85,2.02l-8.89 -2.77c-1.91,3.71 -4.29,7.13 -7.07,10.2l5.73 7.35c1.04,1.33 0.8,3.28 -0.53,4.32l-8.09 6.31c-1.33,1.04 -3.28,0.8 -4.32,-0.53l-5.73 -7.34c-4.38,2.34 -9.16,4.01 -14.21,4.89l0 9.31c0,1.69 -1.38,3.08 -3.08,3.08l-10.25 0c-1.69,0 -3.07,-1.38 -3.07,-3.08l0 -9.31c-5.01,-0.87 -9.75,-2.52 -14.1,-4.82l-5.71 7.36c-1.04,1.34 -2.98,1.58 -4.31,0.55l-8.1 -6.28c-1.34,-1.04 -1.58,-2.98 -0.55,-4.31l5.71 -7.36c-2.82,-3.1 -5.24,-6.57 -7.17,-10.32l-8.89 2.76c-1.62,0.5 -3.35,-0.41 -3.85,-2.03l-3.04 -9.79c-0.5,-1.62 0.41,-3.35 2.03,-3.85l8.89 -2.76c-0.26,-2 -0.39,-4.03 -0.39,-6.09 0,-2.08 0.13,-4.12 0.39,-6.13l-8.89 -2.77c-1.62,-0.5 -2.52,-2.23 -2.02,-3.85l3.05 -9.79c0.5,-1.62 2.24,-2.52 3.85,-2.02l8.89 2.77c1.91,-3.71 4.29,-7.13 7.07,-10.2l-5.73 -7.35c-1.04,-1.33 -0.8,-3.27 0.53,-4.32l8.09 -6.31c1.33,-1.04 3.28,-0.8 4.32,0.53l5.73 7.35c4.38,-2.34 9.16,-4.01 14.21,-4.89l0 -9.31c0,-1.69 1.38,-3.07 3.07,-3.07zm5.13 29.28c16.61,0 30.07,13.46 30.07,30.07 0,16.61 -13.46,30.07 -30.07,30.07 -16.61,0 -30.07,-13.46 -30.07,-30.07 0,-16.61 13.46,-30.07 30.07,-30.07z"/>
 </g>
</svg>
