<?xml version="1.0" encoding="UTF-8"?>
<!DOCTYPE svg PUBLIC "-//W3C//DTD SVG 1.1//EN" "http://www.w3.org/Graphics/SVG/1.1/DTD/svg11.dtd">
<!-- Creator: CorelDRAW 2018 (64-Bit) -->
<svg xmlns="http://www.w3.org/2000/svg" xml:space="preserve" width="32.1988mm" height="39.8883mm" version="1.1" style="shape-rendering:geometricPrecision; text-rendering:geometricPrecision; image-rendering:optimizeQuality; fill-rule:evenodd; clip-rule:evenodd"
viewBox="0 0 832.65 1031.5"
 xmlns:xlink="http://www.w3.org/1999/xlink">
 <defs>
  <style type="text/css">
   <![CDATA[
    .fil0 {fill:#2B2A29}
   ]]>
  </style>
 </defs>
 <g id="Katman_x0020_1">
  <metadata id="CorelCorpID_0Corel-Layer"/>
  <path class="fil0" d="M271.47 0c0,0 14.05,62.21 14.71,88.97 0.67,26.76 16.39,47.49 14.72,72.58 -1.67,25.08 -6.02,36.62 3.51,38.29 9.53,1.67 12.54,7.19 10.04,13.38 -2.51,6.19 -16.89,7.02 -25.08,-0.5 -8.19,-7.53 -5.18,-23.41 -26.76,-23.58 -21.57,-0.17 -44.15,23.91 -44.15,23.91 0,0 33.61,-6.36 37.29,16.22 3.68,22.58 16.89,32.44 26.92,25.42 10.04,-7.02 19.07,-17.89 31.11,-14.55 12.04,3.34 25.92,19.23 39.63,20.57 11.97,1.17 14.76,-25.93 29.72,-42.85 8.68,-9.82 18.72,-10.37 31.65,-6.98 8,2.1 10.14,-6.44 9.67,-15.4 -1.1,-21.21 -17.34,-42.52 17.92,-57.02 0,0 -35.79,-4.01 -53.18,9.7 -17.39,13.71 -5.35,27.09 -8.03,36.45 -2.68,9.37 -14.38,12.54 -19.73,9.53 -4.57,-2.57 -5.23,-10.57 2.06,-16.33 8.99,-7.13 -14.74,-18.94 -23.63,-33.84 -5.69,-9.53 -19.23,-55.35 -26.26,-64.72 -7.02,-9.36 -28.09,-47.16 -42.15,-79.27zm2.93 481.86c0,0 -19.57,-27.59 -16.56,-47.16 0,0 69.07,-9.36 116.56,38.13 0,0 -6.52,30.1 6.86,43.98 0,0 -30.77,-10.2 -27.09,-44.49 0,0 -83.11,-47.32 -79.77,9.53zm188.3 -121.91l34.95 -30.94c0,0 20.9,36.62 -0.17,67.73 -21.07,31.1 -22.07,48.16 -22.07,48.16 0,0 -25.08,-2.67 -38.13,13.04 0,0 5.85,-22.07 26.08,-27.59 0,0 11.71,-6.86 1.01,-20.07 -10.7,-13.21 -88.13,-16.56 -114.21,27.93 0,0 -11.62,-23.66 5.77,-55.1 17.39,-31.44 46.15,-30.27 46.15,-30.27 0,0 -19.15,26.84 9.61,27.51 28.76,0.67 44.48,3.01 65.22,16.72 0,0 11.7,-25.08 -14.22,-37.12zm80.65 47.19l-26.92 -3.68c0,0 -5.52,19.9 -12.38,28.76 0,0 54.85,50.5 18.39,116.39 0,0 -12.21,-0.84 -19.9,-4.68 0,0 3.51,-32.28 -26.08,-41.98 0,0 15.89,29.77 13.54,45.99 0,0 14.87,11.53 36.71,19.77 13.71,5.17 72.38,17.39 79.34,-3.22 4.01,-11.87 -18.9,-36.63 -18.9,-36.63 0,0 3.85,39.64 -49.83,25.92 0,0 29.27,-54.01 10.2,-86.12 -19.06,-32.11 -11.04,-40.47 -4.18,-60.54zm-264.55 81.94c0,0 20.9,-16.39 46.49,-3.34 0,0 -11.54,81.27 44.65,106.36 0,0 8.36,-19.73 12.04,-20.57 0,0 25.59,0 41.64,-17.73 0,0 -2.01,22.41 -30.27,32.11 0,0 -16.89,12.21 6.19,19.06 23.08,6.86 73.49,9.88 108.2,-26.08 0,0 21.74,68.9 -70.24,85.62 0,0 19.57,-26.92 -14.72,-35.45 -34.28,-8.53 -46.15,-10.7 -46.15,-10.7 0,0 -10.2,36.12 20.24,35.79l-40.47 41.47c0,0 -20.4,-36.45 4.68,-85.62 -75.59,-39.3 -32.87,-89.99 -82.28,-120.9zm149.91 -200.24c120.96,0 219.02,98.06 219.02,219.02 0,86.29 -49.91,160.91 -122.43,196.6 -0.66,-2.13 -1.6,-6.61 -0.18,-12.2 0,0 -21.57,-3.18 -36.29,-27.09 0,0 5.52,19.07 -7.36,44.32 0,0 5.08,2.73 7.67,8.93 -19.2,5.5 -39.47,8.45 -60.44,8.45 -120.96,0 -219.02,-98.06 -219.02,-219.02 0,-120.96 98.06,-219.02 219.02,-219.02zm-156.93 -5.28c-70.83,51.32 -111.34,117.58 -117.06,201.01 -94.82,47.61 -156.2,93.36 -154.68,135.62 2.87,44.79 88.3,43.44 182.61,37.12 -28.9,-8.5 -137.83,-34.05 -110.65,-77.65 15.21,-24.41 43.14,-49.46 83.9,-74.86 58.24,30.67 60.06,81.87 28.1,126.43 66.69,105.98 174.98,150.83 306.89,123.47 0,0 -22.74,33.44 -67.89,33.78 -11.09,34.35 -15.01,32.22 -34.15,41.68 0,0 29.46,30.89 81.3,-1.88 0,0 -13.71,-21.24 13.71,-29.1 27.42,-7.86 30.77,20.32 19.98,30.94 -10.79,10.62 -21.65,19.57 -21.65,19.57 0,0 18.39,23.75 32.77,29.43 14.38,5.69 22.07,57.86 45.48,83.95 12.93,14.41 50.19,67.97 50.54,68.44 0.09,-0.52 -0.59,-65.8 1.59,-84.84 3.98,-34.83 -19.96,-81.82 -11.53,-94.78 8.43,-12.96 9.68,-42.98 9.68,-42.98 0,0 -14.04,-1 -28.99,-3.41 -14.94,-2.41 -28.53,-27.32 -1.62,-36.8 26.91,-9.47 28.03,15.78 28.03,15.78 61.24,-3.3 67.37,-45.54 67.37,-45.54 -21.08,3.37 -23.04,7.38 -51.97,-14.21 -37.01,25.87 -74.92,11.78 -74.92,11.78 104.64,-59.44 154.82,-151.97 148.08,-258.46 -54.62,-19.8 -67.44,-73.57 -45.98,-116.22 34.14,-9.14 65.72,-9.74 87.36,-3.65 32.25,9.07 29.52,20.7 21.23,46.59 -9.2,28.72 -23.37,57.44 -39.7,86.16 50.6,-38.31 87.09,-74.16 103.57,-106.5 13.6,-26.69 15.79,-45.47 -15.43,-57.92 -34.66,-13.82 -94.28,-4.95 -163.4,12.58 -44.52,-59.15 -111.11,-97.26 -212.71,-102.01 -37.64,38.98 -91.92,52.99 -159.88,46.49z"/>
 </g>
</svg>
