<?xml version="1.0" encoding="UTF-8"?>
<!DOCTYPE svg PUBLIC "-//W3C//DTD SVG 1.1//EN" "http://www.w3.org/Graphics/SVG/1.1/DTD/svg11.dtd">
<!-- Creator: CorelDRAW 2018 (64-Bit) -->
<svg xmlns="http://www.w3.org/2000/svg" xml:space="preserve" width="34.3013mm" height="39.8883mm" version="1.1" style="shape-rendering:geometricPrecision; text-rendering:geometricPrecision; image-rendering:optimizeQuality; fill-rule:evenodd; clip-rule:evenodd"
viewBox="0 0 932.46 1084.34"
 xmlns:xlink="http://www.w3.org/1999/xlink">
 <defs>
  <style type="text/css">
   <![CDATA[
    .fil0 {fill:#2B2A29}
   ]]>
  </style>
 </defs>
 <g id="Katman_x0020_1">
  <metadata id="CorelCorpID_0Corel-Layer"/>
  <path class="fil0" d="M354.68 245.85c0,0 -140.51,65.88 -142.78,203.29 0,0 1.41,28.42 17.95,37.89 16.54,9.47 25.31,-14.98 25.31,-14.98 0,0 -6.51,76.34 -56.27,71.53 -49.76,-4.81 -24.32,-121.29 -24.32,-121.29 0,0 15.83,-81.43 75.77,-143.63l-25.45 -29.12c0,0 -81.42,77.46 -90.47,216.56 0,0 5.65,97.26 35.06,135.71 0,0 -10.74,90.48 145.33,181.51l0 29.97c0,0 -173.31,-66.45 -223.07,-240.61 0,0 -31.53,-5.79 -48.21,-37.46 -16.68,-31.67 -43.54,-69.55 -43.54,-69.55 0,0 40.71,-59.94 49.76,-79.73 9.05,-19.79 44.11,-29.4 44.11,-29.4 0,0 43.26,-182.93 267.18,-257.57 0,0 10.46,-40.43 44.39,-57.11 33.93,-16.68 65.31,-41.84 65.31,-41.84 0,0 47.22,32.8 66.44,43.26 19.22,10.46 38.17,34.78 43.54,61.64 0,0 197.07,54.28 256.44,255.59 0,0 32.8,-3.96 62.77,47.78 29.97,51.74 32.52,55.42 32.52,55.42 0,0 -30.53,49.48 -40.43,67.57 -9.9,18.09 -28.84,34.49 -54,35.63l-21.49 53.29 -38.31 -42.98c0,0 -3.39,-7.21 3.11,-22.05 6.5,-14.84 51.03,-166.1 -63.76,-297.85l-30.54 35.91c0,0 96.41,90.76 59.09,266.05 0,0 -19.65,-9.61 -35.2,-5.37 0,0 19.37,16.11 17.95,46.37 -1.41,30.25 -20.08,54.28 -20.08,54.28 0,0 -13.57,20.64 -29.4,9.9 -15.83,-10.74 4.24,-33.08 9.9,-38.73 5.65,-5.66 11.31,-11.88 5.94,-22.9 -5.37,-11.03 -30.54,-46.37 -91.32,-87.93l0 -73.79c0,0 -59.37,-9.33 -101.21,-62.48 0,0 68.99,-21.77 78.88,-62.77 0,0 -10.46,-11.87 -46.65,-7.35 0,0 0.14,-38.17 -6.22,-50.33 0,0 -35.91,8.48 -46.09,44.67 0,0 -14.7,-38.45 -45.24,-46.23 0,0 -16.54,24.46 -1.84,56.26 0,0 -36.47,-4.52 -60.22,3.25 0,0 -4.52,16.4 30.96,43.11 0,0 -25.03,11.59 -31.81,25.44 0,0 10.89,9.61 40.58,12.44 0,0 -24.74,25.73 -55.28,26.86 -30.53,1.13 -38.45,-49.48 -38.45,-49.48 0,0 -14.7,-71.53 33.34,-128.61zm-76.61 8.44l-27.99 -28.84c138.12,-104.09 308.93,-102.5 440.83,5.83l-28.29 34.87c-101.06,-96.16 -275.58,-99.1 -384.56,-11.87zm63.49 196.27c0,0 80.3,-33.93 114.79,-68.7 5.27,-4.38 22.79,-3.5 24.6,0 0,0 11.87,34.63 104.9,66.01l0 126.38c0,0 32.8,13.29 68.7,50.61 0,0 -25.73,31.1 -1.41,53.16 24.31,22.05 46.08,13.01 63.33,-1.13 17.25,-14.14 44.95,-69.84 44.95,-69.84 0,0 59.38,27.71 45.81,96.69 -13.57,68.99 -86.52,83.41 -86.52,83.41 0,0 -39.02,1.13 -43.26,-25.73 -4.24,-26.86 13.85,-30.25 20.08,-29.12 6.22,1.13 11.31,9.05 11.03,20.64 -0.28,11.59 5.94,4.52 5.94,4.52 0,0 11.59,-25.16 -5.94,-35.34 -17.53,-10.18 -34.78,4.8 -34.78,4.8 0,0 -30.53,30.54 -9.33,66.72 0,0 9.33,16.4 37.04,17.53 0,0 -38.16,48.63 -116.77,72.38 -78.6,23.75 -156.07,84.82 -158.33,130.06 0,0 27.14,-5.38 26.29,24.03 -0.85,29.41 -31.66,43.82 -31.66,43.82 0,0 -33.93,11.31 -51.46,-11.03 -17.53,-22.34 -9.05,-63.33 -9.05,-63.33 0,0 14.14,-68.14 37.6,-114.51l-44.95 0 -1.98 -107.44c0,0 -54.85,-27.43 -83.69,-59.37 0,0 63.9,10.74 94.43,-35.91 30.54,-46.65 -15.55,-83.12 -15.55,-83.12l-4.52 -74.07c0,0 -55.98,-7.63 -100.37,31.67 -33.33,29.5 -46.41,70.26 -10.43,100.18 9.56,7.95 24.01,17.24 45.77,26.48 0,0 -10.46,-14.98 -18.38,-19.22 -7.92,-4.24 -39.02,-26.3 -32.23,-55.98 6.79,-29.69 28.55,-50.61 84.26,-63.33l2.83 31.95c0,0 -43.26,15.55 -37.04,53.44 6.22,37.89 28.84,36.19 48.35,24.6 0,0 -35.34,-0 -26.3,-30.25 9.05,-30.25 36.76,-17.81 36.76,-17.81 0,0 26.34,10.1 19.79,50.61 -6.55,40.51 -60.51,40.99 -60.51,40.99 0,0 -68.14,-4.52 -92.45,-41.56 -33.32,-50.76 -5.85,-98.37 36.55,-131.74 25.04,-19.71 60.16,-39 103.12,-41.01l-0.02 -41.12zm23.88 24.43c0,0 45.52,-23.47 91.04,-61.92l24.18 0c0,0 24.6,35.05 86.23,58.24l-9.75 246.54c0,0 -98.39,92.65 -133.91,136.33 -5.74,7.05 -4.05,6.89 -13.58,9.46 -11.18,3.01 -29.59,4.41 -31.33,-18.28 -2.51,-32.8 -0.91,-131.47 -3.11,-131.47 37.57,-23.44 22.07,-96.16 -5.94,-123.27 0,0 -5.94,-67.29 -3.82,-115.63zm129.07 257.69c0,0 -45.8,10.18 -44.39,-59.37 0,0 -0.99,-28.98 17.25,-51.18 18.24,-22.19 34.49,-40.71 34.21,-70.12 -0.2,-21.23 -11.91,-31.71 -23.51,-35.78 -19.43,-6.82 -34.84,4.44 -38.16,24.56 -2.76,16.71 6.75,32.81 35.38,19.71 0,0 11.87,33.65 -34.21,36.19 0,0 -34.77,-5.09 -34.21,-48.35 0.52,-39.56 41.86,-69.6 78.55,-56.7 64.58,22.7 61.72,89.16 18.42,132.47 -28.84,28.84 -52.54,69.7 -9.33,108.57zm64.05 108.84c0,0 13.57,13.29 28.13,-8.06 14.56,-21.35 4.39,-39.02 4.39,-39.02 0,0 -12.3,-23.61 -48.49,-2.41 -58.72,34.4 -119.26,118.73 -129.49,183.49 0,0 -12.44,53.01 2.54,59.23 0,0 3.68,2.69 8.55,-4.03 4.88,-6.71 12.02,-1.2 12.37,6.22 0.32,6.78 -1.13,20.21 -20.1,22.93 -28.7,4.09 -26,-41.17 -24.01,-59.75 0,0 6.15,-57.58 36.6,-109.51 15.53,-26.48 89.46,-110.66 116.94,-124.85 10.86,-5.61 29.42,-10.98 50.87,0.54 34.21,18.38 12.16,66.44 12.16,66.44 0,0 -14.98,33.65 -50.33,23.47 0,0 -15.41,-7.63 -10.6,-14.42 4.81,-6.79 10.46,-0.28 10.46,-0.28z"/>
 </g>
</svg>
