<?xml version="1.0" encoding="UTF-8"?>
<!DOCTYPE svg PUBLIC "-//W3C//DTD SVG 1.1//EN" "http://www.w3.org/Graphics/SVG/1.1/DTD/svg11.dtd">
<!-- Creator: CorelDRAW 2018 (64-Bit) -->
<svg xmlns="http://www.w3.org/2000/svg" xml:space="preserve" width="39.8883mm" height="39.8883mm" version="1.1" style="shape-rendering:geometricPrecision; text-rendering:geometricPrecision; image-rendering:optimizeQuality; fill-rule:evenodd; clip-rule:evenodd"
viewBox="0 0 264.34 264.34"
 xmlns:xlink="http://www.w3.org/1999/xlink">
 <defs>
  <style type="text/css">
   <![CDATA[
    .fil0 {fill:#2B2A29}
   ]]>
  </style>
 </defs>
 <g id="Katman_x0020_1">
  <metadata id="CorelCorpID_0Corel-Layer"/>
  <path class="fil0" d="M88.63 245.98c-38.23,-9.28 -61.31,-37.88 -69.45,-67.65 -0.39,-2.3 0.07,-4.27 1.37,-5.9l9.07 -9.14c2.9,-2.44 4.05,3.28 4.58,5.06 3.23,10.85 8.72,21.02 14.99,30.96 0.62,1.13 0.47,2.33 -0.47,3.54l-2.47 2.72c-0.89,1.82 -0.64,3.1 0.58,4.71 2.64,3.35 5.9,6.36 9.79,9.03 1.09,0.75 2.51,0.77 3.56,0.04l4.03 -3.26c0.79,-0.51 1.67,-0.01 2.84,0.81 10.72,7.17 22.85,11.58 35.39,15.2 1.08,0.47 1.15,2.14 0.38,2.88l-10.11 10.08c-1.09,1.05 -2.46,1.33 -4.09,0.91zm87.08 0c38.23,-9.28 61.31,-37.88 69.45,-67.65 0.39,-2.3 -0.07,-4.27 -1.37,-5.9l-9.07 -9.14c-2.9,-2.44 -4.05,3.28 -4.58,5.06 -3.23,10.85 -8.72,21.02 -14.99,30.96 -0.62,1.13 -0.47,2.33 0.47,3.54l2.47 2.72c0.89,1.82 0.64,3.1 -0.58,4.71 -2.64,3.35 -5.9,6.36 -9.79,9.03 -1.09,0.75 -2.51,0.77 -3.56,0.04l-4.03 -3.26c-0.79,-0.51 -1.67,-0.01 -2.84,0.81 -10.72,7.17 -22.85,11.58 -35.39,15.2 -1.08,0.47 -1.15,2.14 -0.38,2.88l10.11 10.08c1.09,1.05 2.46,1.33 4.09,0.91zm-87.08 -227.62c-38.23,9.28 -61.31,37.88 -69.45,67.65 -0.39,2.3 0.07,4.27 1.37,5.9l9.07 9.14c2.9,2.44 4.05,-3.28 4.58,-5.06 3.23,-10.85 8.72,-21.02 14.99,-30.96 0.62,-1.13 0.47,-2.33 -0.47,-3.54l-2.47 -2.72c-0.89,-1.82 -0.64,-3.1 0.58,-4.71 2.64,-3.35 5.9,-6.36 9.79,-9.03 1.09,-0.75 2.51,-0.77 3.56,-0.04l4.03 3.26c0.79,0.51 1.67,0.01 2.84,-0.81 10.72,-7.17 22.85,-11.58 35.39,-15.2 1.08,-0.47 1.15,-2.14 0.38,-2.88l-10.11 -10.08c-1.09,-1.05 -2.46,-1.33 -4.09,-0.92zm87.08 0c38.23,9.28 61.31,37.88 69.45,67.65 0.39,2.3 -0.07,4.27 -1.37,5.9l-9.07 9.14c-2.9,2.44 -4.05,-3.28 -4.58,-5.06 -3.23,-10.85 -8.72,-21.02 -14.99,-30.96 -0.62,-1.13 -0.47,-2.33 0.47,-3.54l2.47 -2.72c0.89,-1.82 0.64,-3.1 -0.58,-4.71 -2.64,-3.35 -5.9,-6.36 -9.79,-9.03 -1.09,-0.75 -2.51,-0.77 -3.56,-0.04l-4.03 3.26c-0.79,0.51 -1.67,0.01 -2.84,-0.81 -10.72,-7.17 -22.85,-11.58 -35.39,-15.2 -1.08,-0.47 -1.15,-2.14 -0.38,-2.88l10.11 -10.08c1.09,-1.05 2.46,-1.33 4.09,-0.92zm-61.17 154.11l0 -12.87c0,0 -0.13,-2.52 -2.23,-3.81 -2.1,-1.3 -5.02,-3.6 -5.45,-0.94 -0.43,2.66 -1.75,11.33 7.68,17.62zm35.26 0l0 -12.87c0,0 0.13,-2.52 2.23,-3.81 2.1,-1.3 5.02,-3.6 5.45,-0.94 0.43,2.66 1.75,11.33 -7.68,17.62zm-38.84 -53.08c0,0 -1.02,-1.33 -0.13,-2.44 0.93,-1.15 4.78,0.25 5.88,1.3 0.77,0.73 1.74,2.12 0.67,3.45 -1.81,2.25 -6.42,-2.32 -6.42,-2.32zm42.43 0c0,0 1.03,-1.33 0.13,-2.44 -0.93,-1.15 -4.78,0.25 -5.88,1.3 -0.77,0.73 -1.74,2.12 -0.67,3.45 1.81,2.25 6.42,-2.32 6.42,-2.32zm-50.46 -1.87c0.28,2.92 1.72,4.85 4.73,5.95 -2.16,1.85 -4.24,2.22 -6.16,-0.3 -1.63,-2.14 -0.67,-4.26 1.43,-5.65zm58.49 0c-0.28,2.92 -1.72,4.85 -4.73,5.95 2.16,1.85 4.24,2.22 6.16,-0.3 1.63,-2.14 0.67,-4.26 -1.43,-5.65zm95.83 -17.2c-0.87,-1.37 -3.34,-1.67 -5.04,0l-14.31 19.15c-2.17,2.96 -1.48,13.24 4.33,5.7 2.58,-2.82 4.97,-7.08 7.7,-9.44 2.06,-1.79 3.3,-2.53 4.28,0.49 1.15,3.56 1.89,10.9 2.16,15.95 -0.26,5.05 -1,12.39 -2.16,15.95 -0.98,3.02 -2.23,2.27 -4.28,0.49 -2.72,-2.37 -5.12,-6.62 -7.7,-9.44 -5.81,-7.54 -6.5,2.74 -4.33,5.7l14.31 19.15c1.7,1.67 4.17,1.37 5.04,0 4.74,-9.14 6.67,-20.02 7.09,-31.85 -0.42,-11.82 -2.35,-22.71 -7.09,-31.85zm-250.16 0c0.87,-1.37 3.34,-1.67 5.04,0l14.31 19.15c2.17,2.96 1.48,13.24 -4.33,5.7 -2.58,-2.82 -4.97,-7.08 -7.7,-9.44 -2.06,-1.79 -3.3,-2.53 -4.28,0.49 -1.15,3.56 -1.89,10.9 -2.16,15.95 0.26,5.05 1,12.39 2.16,15.95 0.98,3.02 2.23,2.27 4.28,0.49 2.72,-2.37 5.12,-6.62 7.7,-9.44 5.81,-7.54 6.5,2.74 4.33,5.7l-14.31 19.15c-1.7,1.67 -4.17,1.37 -5.04,0 -4.74,-9.14 -6.67,-20.02 -7.09,-31.85 0.42,-11.82 2.35,-22.71 7.09,-31.85zm93.23 -93.23c-1.37,0.87 -1.67,3.34 0,5.04l19.15 14.31c2.96,2.17 13.24,1.48 5.7,-4.33 -2.82,-2.58 -7.08,-4.97 -9.44,-7.7 -1.78,-2.06 -2.53,-3.3 0.49,-4.28 3.56,-1.15 10.9,-1.89 15.95,-2.16 5.05,0.26 12.39,1 15.95,2.16 3.02,0.98 2.27,2.23 0.49,4.28 -2.37,2.72 -6.62,5.12 -9.44,7.7 -7.55,5.81 2.74,6.5 5.7,4.33l19.15 -14.31c1.67,-1.7 1.37,-4.17 0,-5.04 -9.14,-4.74 -20.02,-6.67 -31.85,-7.09 -11.82,0.42 -22.71,2.35 -31.85,7.09zm0 250.16c-1.37,-0.87 -1.67,-3.34 0,-5.04l19.15 -14.31c2.96,-2.17 13.24,-1.48 5.7,4.33 -2.82,2.58 -7.08,4.97 -9.44,7.7 -1.78,2.06 -2.53,3.3 0.49,4.28 3.56,1.15 10.9,1.89 15.95,2.16 5.05,-0.26 12.39,-1 15.95,-2.16 3.02,-0.98 2.27,-2.23 0.49,-4.28 -2.37,-2.72 -6.62,-5.12 -9.44,-7.7 -7.55,-5.81 2.74,-6.5 5.7,-4.33l19.15 14.31c1.67,1.7 1.37,4.17 0,5.04 -9.14,4.74 -20.02,6.67 -31.85,7.09 -11.82,-0.42 -22.71,-2.35 -31.85,-7.09zm31.85 -221.63c53.32,0 96.55,43.23 96.55,96.55 0,53.32 -43.23,96.55 -96.55,96.55 -53.32,0 -96.55,-43.23 -96.55,-96.55 0,-53.32 43.23,-96.55 96.55,-96.55zm0 10.97c47.26,0 85.57,38.31 85.57,85.58 0,47.26 -38.31,85.57 -85.57,85.57 -47.26,0 -85.58,-38.31 -85.58,-85.57 0,-47.26 38.31,-85.58 85.58,-85.58zm-2.51 35.69c-2.95,-1.31 -5.08,-3.02 -9.63,-3.1 -6.86,-0.11 -10.04,3.78 -19.49,4.16 -3.43,0.14 -6.97,-0.13 -9.62,-1.05 -6.05,-2.09 -17.45,-5.61 -20.08,-2.59 -2.63,3.02 4.75,13.85 4.75,13.85 0,0 5.83,11.19 1.01,19.61 -4.82,8.42 -7.99,13.96 -19.36,16.7 0,0 7.67,5.45 9.57,9.16 1.91,3.71 2.66,9.93 2.66,9.93 0,0 2.59,10.18 -7.05,16.3 10.96,11.36 14.66,9.2 24.34,10.16 10.18,1.01 17.86,9.95 7.98,17.55 11.68,2.94 21.33,-7.11 11.95,-19.5 -5.81,-8.31 -18.98,-3.45 -27.31,-26.16 -3.11,-8.48 -3.44,-11.93 -0.69,-20.72 2.48,-7.92 7.09,-15.28 14.11,-22 -6.11,-5.59 -11.12,-10.79 -12.46,-14.65 -1.22,-3.52 2.55,-3.72 3.97,-2.99 10.04,5.15 22.09,2.88 29.62,-1.29 1.9,-1.05 4.25,-2.01 6.22,-1.8 3.44,0.06 9.27,4.99 13.08,4.99 3.81,0 9.64,-4.92 13.08,-4.99 1.98,-0.21 4.32,0.75 6.22,1.8 7.53,4.17 19.58,6.44 29.62,1.29 1.42,-0.73 5.19,-0.53 3.97,2.99 -1.34,3.86 -6.35,9.05 -12.46,14.65 7.02,6.72 11.63,14.07 14.11,22 2.75,8.79 2.42,12.23 -0.69,20.72 -8.33,22.72 -21.49,17.85 -27.31,26.16 -9.38,12.39 0.27,22.45 11.95,19.5 -9.88,-7.6 -2.21,-16.54 7.97,-17.55 9.68,-0.96 13.38,1.2 24.34,-10.16 -9.64,-6.12 -7.05,-16.3 -7.05,-16.3 0,0 0.76,-6.23 2.66,-9.93 1.91,-3.71 9.57,-9.16 9.57,-9.16 -11.37,-2.73 -14.54,-8.28 -19.36,-16.7 -4.82,-8.42 1.01,-19.61 1.01,-19.61 0,0 7.38,-10.83 4.75,-13.85 -2.63,-3.02 -14.04,0.5 -20.08,2.59 -2.65,0.92 -6.19,1.18 -9.62,1.05 -9.45,-0.38 -12.63,-4.07 -19.49,-4.16 -4.39,0.27 -6.52,1.68 -9.32,2.96 -3.46,1.58 -3.96,1.68 -7.43,0.14zm2.51 9.94c-12.23,0 -21.25,0.8 -25.69,4.86 -6.12,5.18 -11.81,12.95 -17.29,21.91 -2.38,3.89 -3.94,7.24 -4.76,11.83 -0.59,3.3 -0.61,10.54 4.57,7.92 4.91,-2.48 6.28,-1.28 6.32,4.11 0.03,4.07 0.94,7.65 4.51,9.72 0.83,-6.89 -1.69,-19.68 5.4,-19.68 4.73,0.24 7.71,4.51 10.04,10.33 -2.42,0.11 -5.25,-1.01 -8.53,-3.49 -2.07,6.9 12.01,15.01 15.53,15.01l9.91 0.61 9.91 -0.61c3.52,0 17.6,-8.11 15.53,-15.01 -3.28,2.48 -6.11,3.6 -8.53,3.49 2.32,-5.81 5.31,-10.08 10.04,-10.33 7.09,0 4.57,12.8 5.4,19.68 3.58,-2.07 4.48,-5.65 4.51,-9.72 0.04,-5.39 1.41,-6.59 6.32,-4.11 5.18,2.61 5.16,-4.62 4.57,-7.92 -0.82,-4.59 -2.38,-7.94 -4.76,-11.83 -5.49,-8.97 -11.18,-16.74 -17.29,-21.91 -4.45,-4.06 -13.38,-4.86 -25.69,-4.86zm-6.91 14.46c1.83,0.49 5.13,3.35 3.46,9.28 -0.77,2.73 -1.32,4.33 -2.49,5.37 -1.06,0.93 -2.73,1.31 -3.5,3.28 -2.48,6.33 3.41,14.14 9.44,14.28 6.03,-0.15 11.93,-7.95 9.44,-14.28 -0.77,-1.97 -2.45,-2.35 -3.5,-3.28 -1.17,-1.03 -1.72,-2.64 -2.49,-5.37 -1.67,-5.93 1.63,-8.78 3.46,-9.28 6.22,-1.16 -3.26,5.23 0.2,9.39 3.43,4.12 5.75,-1.83 10.16,-2.93 1.34,-0.33 4.89,-0.05 6.49,-0.05 3.18,0 2.84,-3.6 4.64,-3.6 4.29,0.01 7.04,4.84 8.57,10.68 0.58,2.21 1.42,5.3 0.69,7.52 -0.76,2.29 -2.82,3.9 -5.88,1.8 -2.78,-1.91 -3.84,-3.44 -7.95,-2.61 -2.45,0.49 -4.79,2.09 -7.02,4.81 -4.46,5.85 -4.8,10.14 -16.8,16.66 -12.01,-6.52 -12.34,-10.81 -16.8,-16.66 -2.23,-2.72 -4.58,-4.32 -7.02,-4.81 -4.12,-0.83 -5.17,0.7 -7.95,2.61 -3.06,2.1 -5.12,0.49 -5.88,-1.8 -0.74,-2.22 0.11,-5.31 0.69,-7.52 1.53,-5.84 4.29,-10.67 8.58,-10.68 1.8,0 1.46,3.6 4.64,3.6 1.6,0 5.14,-0.28 6.49,0.05 4.4,1.1 6.73,7.05 10.16,2.93 3.46,-4.16 -6.02,-10.55 0.2,-9.39zm6.91 -10.58c-4.7,0 -7.99,0.65 -13.7,0.78 -1.06,0.02 -3.17,0.31 -3.72,1.35 -0.26,0.5 0.22,1.13 2.36,1.81 3.18,1.09 5.48,-0.19 8.43,0.77 1.09,0.35 1.46,1.12 3.16,2.27 0.34,0.23 3.22,2.13 3.47,2.13 0.24,0 3.12,-1.9 3.47,-2.13 1.7,-1.15 2.07,-1.91 3.16,-2.27 2.95,-0.95 5.25,0.33 8.43,-0.77 2.14,-0.69 2.63,-1.32 2.36,-1.81 -0.54,-1.03 -2.66,-1.32 -3.72,-1.35 -5.71,-0.13 -9.14,-0.78 -13.7,-0.78zm0.71 62.63c3.04,0 5.33,0.24 6.83,0.47 2.37,0.36 4.33,0.5 4.39,3.62 0.03,1.67 -0.56,4.2 -2.43,8.04 0,0 -1.8,-7.16 -8.78,-6.95 -6.98,-0.22 -8.78,6.95 -8.78,6.95 -1.87,-3.84 -2.46,-6.37 -2.43,-8.04 0.06,-3.12 2.02,-3.26 4.39,-3.62 1.49,-0.23 3.79,-0.47 6.82,-0.47zm-0.71 31.13c0,0 -8.43,-1.51 -8.43,-10.26 0,-5.06 4.35,-5.35 8.43,-5.33 4.08,-0.02 8.43,0.26 8.43,5.33 0,8.74 -8.43,10.26 -8.43,10.26zm-17.24 -6.62c0,0 7.99,0.61 10.22,12.52l7.02 0 7.02 0c2.23,-11.91 10.22,-12.52 10.22,-12.52 -5.29,11.62 0.61,16.27 0.61,16.27 0,0 -3.31,2.84 -8.78,7.49 -5.88,4.99 -12.26,4.99 -18.14,0 -5.47,-4.64 -8.78,-7.49 -8.78,-7.49 0,0 5.9,-4.64 0.61,-16.27z"/>
 </g>
</svg>
