<?xml version="1.0" encoding="UTF-8"?>
<!DOCTYPE svg PUBLIC "-//W3C//DTD SVG 1.1//EN" "http://www.w3.org/Graphics/SVG/1.1/DTD/svg11.dtd">
<!-- Creator: CorelDRAW 2018 (64-Bit) -->
<svg xmlns="http://www.w3.org/2000/svg" xml:space="preserve" width="39.8883mm" height="39.8883mm" version="1.1" style="shape-rendering:geometricPrecision; text-rendering:geometricPrecision; image-rendering:optimizeQuality; fill-rule:evenodd; clip-rule:evenodd"
viewBox="0 0 357.39 357.39"
 xmlns:xlink="http://www.w3.org/1999/xlink">
 <defs>
  <style type="text/css">
   <![CDATA[
    .fil0 {fill:#2B2A29}
   ]]>
  </style>
 </defs>
 <g id="Katman_x0020_1">
  <metadata id="CorelCorpID_0Corel-Layer"/>
  <path class="fil0" d="M244.47 19.33l-12.91 27.99c-0.75,1.59 -0.25,3.74 1.09,4.78 13.57,7.1 26.11,15.24 37.96,24.05 1.88,1.25 4.14,0.76 5.67,-0.95l17.88 -21.54c1.03,-1.51 0.89,-3.88 -1.15,-5.67 -8.95,-7.9 -18.75,-15.38 -29.86,-22.23 -1.83,-1.1 -3.13,-0.38 -4.5,2.01l-5.89 10.36c-0.93,1.93 0.05,3.51 1.84,4.75l18.27 12.04c1.05,0.57 2.43,0.23 3.44,-1.17l1.68 -2.46c0.79,-1.17 0.3,-2.17 -1.03,-3.05l-12.01 -8.46c-1.77,-1.29 -2.01,-2.85 -1.34,-3.63 0.98,-0.99 1.91,-1.33 3.77,-0.11l15.7 12.01c1.25,1.26 0.91,2.41 -0.11,3.52l-6.59 8.1c-0.91,1.05 -2.31,0.98 -4.3,-0.39l-23.69 -15.36c-1.54,-1.09 -1.61,-2.46 -0.84,-4.3l6.82 -15.7c0.68,-1.61 0.36,-2.77 -0.89,-3.52l-4.92 -2.12c-1.73,-0.66 -3.3,-0.33 -4.07,1.06zm91.97 91.28l-27.5 15.91c-1.56,0.93 -3.73,0.52 -4.81,-0.87 -6.61,-14.12 -13.43,-27.74 -24.07,-40.33 -1.32,-1.96 -2.29,-3.87 -0.63,-5.65l20.87 -20.9c1.47,-1.23 3.84,-1.23 5.71,0.87 9.18,8.78 17.05,18.95 23.33,31.04 1.16,1.92 0.49,3.38 -1.84,5.03l-10.14 7.11c-1.9,1.14 -3.52,0.18 -4.81,-1.69 -3.3,-6.29 -7.47,-12.65 -12.71,-19.09 -0.61,-1.11 -0.32,-2.63 1.05,-3.82l2.39 -1.99c1.14,-0.94 2.16,-0.47 3.08,0.92l8.9 12.52c1.36,1.85 2.93,2 3.68,1.22 0.95,-1.13 1.26,-2.17 -0.03,-4.11l-12.59 -16.3c-1.3,-1.27 -2.44,-0.84 -3.51,0.36l-7.85 7.72c-1.02,1.06 -0.9,2.58 0.55,4.66l16.23 24.77c1.15,1.61 2.52,1.59 4.33,0.63l15.44 -8.46c1.58,-0.85 2.76,-0.58 3.55,0.74l2.3 5.21c0.72,1.84 0.45,3.58 -0.91,4.51zm-91.97 227.46l-12.91 -27.99c-0.75,-1.59 -0.25,-3.74 1.09,-4.78 13.57,-7.1 26.11,-15.24 37.96,-24.05 1.88,-1.25 4.14,-0.76 5.67,0.95l17.88 21.54c1.03,1.51 0.89,3.88 -1.15,5.67 -8.95,7.9 -18.75,15.38 -29.86,22.23 -1.83,1.1 -3.13,0.38 -4.5,-2.01l-5.89 -10.36c-0.93,-1.93 0.05,-3.51 1.84,-4.75l18.27 -12.04c1.05,-0.57 2.43,-0.23 3.44,1.17l1.68 2.46c0.79,1.17 0.3,2.17 -1.03,3.04l-12.01 8.46c-1.77,1.29 -2.01,2.85 -1.34,3.63 0.98,0.99 1.91,1.33 3.77,0.11l15.7 -12.01c1.25,-1.26 0.91,-2.41 -0.11,-3.52l-6.59 -8.1c-0.91,-1.05 -2.31,-0.98 -4.3,0.39l-23.69 15.36c-1.54,1.09 -1.61,2.46 -0.84,4.3l6.82 15.7c0.68,1.6 0.36,2.77 -0.89,3.52l-4.92 2.12c-1.73,0.66 -3.3,0.33 -4.07,-1.06zm91.97 -91.28l-27.5 -15.91c-1.56,-0.93 -3.73,-0.52 -4.81,0.87 -6.61,14.12 -13.43,27.74 -24.07,40.33 -1.32,1.96 -2.29,3.87 -0.63,5.65l20.87 20.9c1.47,1.23 3.84,1.23 5.71,-0.87 9.18,-8.78 17.05,-18.95 23.33,-31.04 1.16,-1.92 0.49,-3.38 -1.84,-5.03l-10.14 -7.11c-1.9,-1.14 -3.52,-0.18 -4.81,1.69 -3.3,6.29 -7.47,12.65 -12.71,19.09 -0.61,1.11 -0.32,2.63 1.05,3.82l2.39 1.99c1.14,0.94 2.16,0.47 3.08,-0.92l8.9 -12.52c1.36,-1.85 2.93,-2 3.68,-1.22 0.95,1.13 1.26,2.17 -0.03,4.11l-12.59 16.3c-1.3,1.27 -2.44,0.84 -3.51,-0.36l-7.85 -7.72c-1.02,-1.06 -0.9,-2.58 0.55,-4.66l16.23 -24.77c1.15,-1.61 2.52,-1.59 4.33,-0.63l15.44 8.46c1.58,0.85 2.76,0.58 3.55,-0.74l2.3 -5.21c0.72,-1.84 0.45,-3.58 -0.91,-4.51zm-223.38 -227.46l12.9 27.99c0.75,1.59 0.25,3.74 -1.09,4.78 -13.57,7.1 -26.11,15.24 -37.96,24.05 -1.88,1.25 -4.14,0.76 -5.67,-0.95l-17.88 -21.54c-1.03,-1.51 -0.89,-3.88 1.15,-5.67 8.95,-7.9 18.75,-15.38 29.86,-22.23 1.83,-1.1 3.13,-0.38 4.5,2.01l5.89 10.36c0.93,1.93 -0.05,3.51 -1.84,4.75l-18.27 12.04c-1.06,0.57 -2.43,0.23 -3.44,-1.17l-1.68 -2.46c-0.79,-1.17 -0.3,-2.17 1.03,-3.05l12.01 -8.46c1.77,-1.29 2.01,-2.85 1.34,-3.63 -0.98,-0.99 -1.91,-1.33 -3.77,-0.11l-15.7 12.01c-1.25,1.26 -0.92,2.41 0.11,3.52l6.59 8.1c0.91,1.05 2.31,0.98 4.3,-0.39l23.69 -15.36c1.54,-1.09 1.61,-2.46 0.84,-4.3l-6.82 -15.7c-0.68,-1.61 -0.36,-2.77 0.89,-3.52l4.92 -2.12c1.73,-0.66 3.3,-0.33 4.08,1.06zm-91.97 91.28l27.5 15.91c1.56,0.93 3.73,0.52 4.81,-0.87 6.61,-14.12 13.43,-27.74 24.07,-40.33 1.32,-1.96 2.29,-3.87 0.63,-5.65l-20.87 -20.9c-1.47,-1.23 -3.84,-1.23 -5.71,0.87 -9.18,8.78 -17.05,18.95 -23.33,31.04 -1.16,1.92 -0.49,3.38 1.84,5.03l10.14 7.11c1.89,1.14 3.51,0.18 4.81,-1.69 3.3,-6.29 7.47,-12.65 12.71,-19.09 0.61,-1.11 0.32,-2.63 -1.05,-3.82l-2.4 -1.99c-1.14,-0.94 -2.16,-0.47 -3.08,0.92l-8.9 12.52c-1.36,1.85 -2.93,2 -3.68,1.22 -0.95,-1.13 -1.26,-2.17 0.03,-4.11l12.59 -16.3c1.3,-1.27 2.44,-0.84 3.51,0.36l7.85 7.72c1.02,1.06 0.9,2.58 -0.55,4.66l-16.23 24.77c-1.15,1.61 -2.52,1.59 -4.33,0.63l-15.44 -8.46c-1.58,-0.85 -2.76,-0.58 -3.55,0.74l-2.3 5.21c-0.72,1.84 -0.45,3.58 0.91,4.51zm91.97 227.46l12.9 -27.99c0.75,-1.59 0.25,-3.74 -1.09,-4.78 -13.57,-7.1 -26.11,-15.24 -37.96,-24.05 -1.88,-1.25 -4.14,-0.76 -5.67,0.95l-17.88 21.54c-1.03,1.51 -0.89,3.88 1.15,5.67 8.95,7.9 18.75,15.38 29.86,22.23 1.83,1.1 3.13,0.38 4.5,-2.01l5.89 -10.36c0.93,-1.93 -0.05,-3.51 -1.84,-4.75l-18.27 -12.04c-1.06,-0.57 -2.43,-0.23 -3.44,1.17l-1.68 2.46c-0.79,1.17 -0.3,2.17 1.03,3.04l12.01 8.46c1.77,1.29 2.01,2.85 1.34,3.63 -0.98,0.99 -1.91,1.33 -3.77,0.11l-15.7 -12.01c-1.25,-1.26 -0.92,-2.41 0.11,-3.52l6.59 -8.1c0.91,-1.05 2.31,-0.98 4.3,0.39l23.69 15.36c1.54,1.09 1.61,2.46 0.84,4.3l-6.82 15.7c-0.68,1.6 -0.36,2.77 0.89,3.52l4.92 2.12c1.73,0.66 3.3,0.33 4.08,-1.06zm-91.97 -91.28l27.5 -15.91c1.56,-0.93 3.73,-0.52 4.81,0.87 6.61,14.12 13.43,27.74 24.07,40.33 1.32,1.96 2.29,3.87 0.63,5.65l-20.87 20.9c-1.47,1.23 -3.84,1.23 -5.71,-0.87 -9.18,-8.78 -17.05,-18.95 -23.33,-31.04 -1.16,-1.92 -0.49,-3.38 1.84,-5.03l10.14 -7.11c1.89,-1.14 3.51,-0.18 4.81,1.69 3.3,6.29 7.47,12.65 12.71,19.09 0.61,1.11 0.32,2.63 -1.05,3.82l-2.4 1.99c-1.14,0.94 -2.16,0.47 -3.08,-0.92l-8.9 -12.52c-1.36,-1.85 -2.93,-2 -3.68,-1.22 -0.95,1.13 -1.26,2.17 0.03,4.11l12.59 16.3c1.3,1.27 2.44,0.84 3.51,-0.36l7.85 -7.72c1.02,-1.06 0.9,-2.58 -0.55,-4.66l-16.23 -24.77c-1.15,-1.61 -2.52,-1.59 -4.33,-0.63l-15.44 8.46c-1.58,0.85 -2.76,0.58 -3.55,-0.74l-2.3 -5.21c-0.72,-1.84 -0.45,-3.58 0.91,-4.51zm157.97 -181.32c62.54,0 113.23,50.7 113.23,113.23 0,62.54 -50.7,113.23 -113.23,113.23 -62.54,0 -113.23,-50.7 -113.23,-113.23 0,-62.54 50.7,-113.23 113.23,-113.23zm-59.26 67.96c-22.16,25.4 -21.24,64.86 0.46,92.8 2.15,2.76 2.33,2.36 -1.64,3.93 -11.65,4.63 -24.8,0.08 -27.52,-17.22 -0.45,-2.84 0.23,-2.09 -2.38,-3.28 -10.17,-4.63 -13.86,-10.58 -12.63,-20.22 0.19,-1.47 0.43,-1.51 -0.43,-2.84 -1.68,-2.6 -5.18,-4.73 -7.42,-7.16 2.38,-3.02 6.37,-5.95 7.8,-9.02 0.64,-1.38 0.46,-1.38 0.07,-2.7 -2.21,-7.65 1.02,-14.15 12.31,-18.95 2.88,-1.23 2.19,-0.32 2.65,-3.33 2.32,-15.36 16.39,-24.01 28.74,-16.16 3.13,1.99 2.26,1.57 0.01,4.15zm118.51 0c22.16,25.4 21.24,64.86 -0.46,92.8 -2.15,2.76 -2.33,2.36 1.64,3.93 11.65,4.63 24.81,0.08 27.52,-17.22 0.45,-2.84 -0.23,-2.09 2.38,-3.28 10.17,-4.63 13.87,-10.58 12.64,-20.22 -0.19,-1.47 -0.43,-1.51 0.43,-2.84 1.68,-2.6 5.18,-4.73 7.42,-7.16 -2.38,-3.02 -6.37,-5.95 -7.8,-9.02 -0.64,-1.38 -0.46,-1.38 -0.07,-2.7 2.21,-7.65 -1.02,-14.15 -12.31,-18.95 -2.88,-1.23 -2.19,-0.32 -2.65,-3.33 -2.33,-15.36 -16.39,-24.01 -28.74,-16.16 -3.13,1.99 -2.26,1.57 -0.01,4.15zm-13.59 -13.59c-25.4,-22.16 -64.86,-21.24 -92.8,0.46 -2.76,2.15 -2.36,2.33 -3.93,-1.64 -4.63,-11.65 -0.08,-24.81 17.22,-27.52 2.84,-0.45 2.09,0.23 3.28,-2.38 4.63,-10.17 10.58,-13.87 20.22,-12.64 1.47,0.19 1.51,0.43 2.84,-0.43 2.59,-1.68 4.73,-5.18 7.16,-7.42 3.02,2.38 5.95,6.37 9.02,7.8 1.38,0.64 1.38,0.46 2.7,0.07 7.65,-2.21 14.15,1.02 18.95,12.31 1.23,2.88 0.31,2.19 3.33,2.65 15.36,2.33 24.01,16.39 16.16,28.74 -1.99,3.13 -1.57,2.26 -4.15,0.01zm0 118.51c-25.4,22.16 -64.86,21.24 -92.8,-0.46 -2.76,-2.15 -2.36,-2.33 -3.93,1.64 -4.63,11.65 -0.08,24.81 17.22,27.52 2.84,0.45 2.09,-0.23 3.28,2.38 4.63,10.17 10.58,13.86 20.22,12.63 1.47,-0.19 1.51,-0.43 2.84,0.43 2.59,1.68 4.73,5.18 7.16,7.42 3.02,-2.38 5.95,-6.37 9.02,-7.8 1.38,-0.64 1.38,-0.46 2.7,-0.07 7.65,2.21 14.15,-1.02 18.95,-12.31 1.23,-2.88 0.31,-2.19 3.33,-2.65 15.36,-2.33 24.01,-16.39 16.16,-28.74 -1.99,-3.13 -1.57,-2.26 -4.15,-0.01zm-12.7 -180.91c42.73,11.59 76.42,45.15 88.17,87.81 12.46,-15.96 21.97,-13.55 34.57,-20.54 -1.4,25.61 -27.96,34.76 -27.79,53.99 -0.17,19.24 26.4,28.39 27.79,53.99 -12.59,-6.99 -22.11,-4.57 -34.57,-20.54 -11.76,42.66 -45.44,76.22 -88.17,87.81 16.19,12.54 13.73,22.08 20.74,34.72 -25.61,-1.4 -34.76,-27.96 -53.99,-27.79 -19.24,-0.17 -28.39,26.4 -53.99,27.79 7.04,-12.69 4.54,-22.25 20.89,-34.84 -42.71,-11.75 -76.32,-45.47 -87.89,-88.25 -12.67,16.57 -22.25,14.03 -34.99,21.09 1.4,-25.61 27.96,-34.76 27.79,-53.99 0.17,-19.24 -26.4,-28.39 -27.79,-53.99 12.74,7.06 22.32,4.52 34.99,21.09 11.58,-42.78 45.18,-76.5 87.89,-88.25 -16.35,-12.59 -13.85,-22.15 -20.89,-34.84 25.61,1.4 34.76,27.96 53.99,27.79 19.23,0.17 28.39,-26.4 53.99,-27.79 -7.02,12.65 -4.55,22.19 -20.74,34.72zm-37.01 -57.42c-17.66,-0.34 -32.03,6.85 -46.09,14.75 17.02,4.41 22.98,13.97 34.47,20.95 0.57,-7.19 0.54,-14.38 0,-21.56 -3.85,0.34 -5.89,2.16 -5.87,5.7 -3.35,-1.42 -6.2,-3.53 -8.66,-6.14 9.39,-0.9 16.54,-7.59 20.28,-4.3l0 22.79c-0.28,8.76 3.02,11.12 9.56,11.12 6.54,0 9.84,-2.36 9.56,-11.12l0 -22.79c3.74,-3.29 10.89,3.4 20.28,4.3 -2.46,2.62 -5.3,4.72 -8.66,6.14 0.03,-3.54 -2.02,-5.36 -5.87,-5.7 -0.54,7.19 -0.57,14.38 0,21.56 11.49,-6.98 17.45,-16.54 34.47,-20.95 -14.06,-7.9 -28.43,-15.09 -46.09,-14.75l-0.2 31.56c-0.2,6.73 -6.78,6.73 -6.98,0l-0.2 -31.56zm0 357.37c-17.66,0.34 -32.03,-6.85 -46.09,-14.75 17.02,-4.41 22.98,-13.97 34.47,-20.95 0.57,7.19 0.54,14.38 0,21.56 -3.85,-0.34 -5.89,-2.16 -5.87,-5.7 -3.35,1.43 -6.2,3.53 -8.66,6.15 9.39,0.9 16.54,7.59 20.28,4.3l0 -22.79c-0.28,-8.76 3.02,-11.12 9.56,-11.12 6.54,0 9.84,2.36 9.56,11.12l0 22.79c3.74,3.29 10.89,-3.4 20.28,-4.3 -2.46,-2.62 -5.3,-4.72 -8.66,-6.15 0.03,3.54 -2.02,5.36 -5.87,5.7 -0.54,-7.19 -0.57,-14.38 0,-21.56 11.49,6.98 17.45,16.54 34.47,20.95 -14.06,7.9 -28.43,15.09 -46.09,14.75l-0.2 -31.56c-0.2,-6.73 -6.78,-6.73 -6.98,0l-0.2 31.56zm182.37 -182.37c0.34,-17.66 -6.85,-32.03 -14.75,-46.09 -4.41,17.02 -13.97,22.98 -20.95,34.47 7.19,0.57 14.38,0.54 21.56,0 -0.34,-3.85 -2.16,-5.89 -5.7,-5.87 1.42,-3.35 3.53,-6.2 6.14,-8.66 0.9,9.39 7.59,16.54 4.3,20.28l-22.79 0c-8.76,-0.28 -11.12,3.02 -11.12,9.56 0,6.54 2.36,9.84 11.12,9.56l22.79 0c3.29,3.74 -3.4,10.89 -4.3,20.28 -2.62,-2.46 -4.72,-5.3 -6.14,-8.66 3.54,0.03 5.36,-2.02 5.7,-5.87 -7.19,-0.54 -14.38,-0.57 -21.56,0 6.98,11.49 16.54,17.45 20.95,34.47 7.9,-14.06 15.09,-28.43 14.75,-46.09l-31.56 -0.2c-6.73,-0.2 -6.73,-6.78 0,-6.98l31.56 -0.2zm-357.37 0c-0.34,-17.66 6.85,-32.03 14.75,-46.09 4.41,17.02 13.97,22.98 20.95,34.47 -7.19,0.57 -14.38,0.54 -21.56,0 0.34,-3.85 2.16,-5.89 5.7,-5.87 -1.43,-3.35 -3.53,-6.2 -6.15,-8.66 -0.9,9.39 -7.59,16.54 -4.3,20.28l22.79 0c8.76,-0.28 11.12,3.02 11.12,9.56 0,6.54 -2.36,9.84 -11.12,9.56l-22.79 0c-3.29,3.74 3.4,10.89 4.3,20.28 2.62,-2.46 4.72,-5.3 6.15,-8.66 -3.54,0.03 -5.36,-2.02 -5.7,-5.87 7.19,-0.54 14.38,-0.57 21.56,0 -6.98,11.49 -16.54,17.45 -20.95,34.47 -7.9,-14.06 -15.09,-28.43 -14.75,-46.09l31.56 -0.2c6.73,-0.2 6.73,-6.78 0,-6.98l-31.56 -0.2zm122 19.27c15.38,-3.58 25.62,29.16 52.85,28.83 -10.11,16.48 -21.99,18.86 -37.54,8.05 -15.6,-12.18 -5.62,-26.03 -15.31,-36.87zm114.08 0c-15.38,-3.58 -25.62,29.16 -52.85,28.83 10.11,16.48 21.99,18.86 37.54,8.05 15.61,-12.18 5.62,-26.03 15.31,-36.87zm-57.04 21.56c-41.97,0 -39.37,-31.88 -63.24,-46.31 5.98,-10.25 13.64,-11.88 23.8,-0.67 1.69,1.38 7.97,-1.32 11.96,0.45 -5.03,27.08 21,28.9 27.49,20.22 6.48,8.68 32.51,6.85 27.48,-20.22 3.99,-1.77 10.26,0.93 11.96,-0.45 10.16,-11.21 17.82,-9.58 23.8,0.67 -23.87,14.43 -21.27,46.31 -63.24,46.31zm-42.23 -57.54c0,0 3.63,7.37 9.78,4.02 6.15,-3.35 8.77,-2.24 11.17,-2.4 2.4,-0.17 4.85,-10.58 1.38,-14.05 -3.46,-3.46 -8.81,-1.6 -12.78,-5.56 -2.05,-2.05 -3.84,-4.11 -7.24,-5.2 -3.18,-1.03 -7.94,-1.28 -10.81,1.96 -5.92,6.7 -4.25,6.37 -1.12,8.71 3.13,2.35 5.81,3.69 9.61,12.52zm84.45 0c0,0 -3.63,7.37 -9.78,4.02 -6.15,-3.35 -8.77,-2.24 -11.17,-2.4 -2.4,-0.17 -4.85,-10.58 -1.38,-14.05 3.46,-3.46 8.81,-1.6 12.78,-5.56 2.05,-2.05 3.84,-4.11 7.24,-5.2 3.18,-1.03 7.94,-1.28 10.81,1.96 5.92,6.7 4.25,6.37 1.12,8.71 -3.13,2.35 -5.81,3.69 -9.61,12.52zm-41.12 -47.63c-3.86,0.26 -7.45,7.67 -12.98,11.27 -7.18,4.67 -13.43,-1.3 -18.8,10.35 11.14,4.95 17.97,11.98 17.93,22.29 0.15,6.37 -4.21,13.05 -6.94,18.36 -4.22,8.19 -0.81,17.12 8.84,17.51 4.72,0.01 7.02,-2.25 7.12,-6.56 0.09,-2.17 -2.3,-4.4 -4.79,-7 -1.61,-1.69 -0.34,-2.49 1.47,-2.63 2.86,-0.23 5.56,1.65 8.16,4.8 2.6,-3.15 5.3,-5.03 8.16,-4.8 1.81,0.15 3.08,0.95 1.47,2.63 -2.49,2.6 -4.88,4.83 -4.79,7 0.1,4.31 2.4,6.57 7.12,6.56 9.65,-0.39 13.06,-9.32 8.84,-17.51 -2.74,-5.31 -7.09,-11.99 -6.94,-18.36 -0.03,-10.31 6.79,-17.34 17.93,-22.29 -5.37,-11.65 -11.62,-5.68 -18.8,-10.35 -5.53,-3.6 -9.12,-11 -12.98,-11.27z"/>
 </g>
</svg>
