<?xml version="1.0" encoding="UTF-8"?>
<!DOCTYPE svg PUBLIC "-//W3C//DTD SVG 1.1//EN" "http://www.w3.org/Graphics/SVG/1.1/DTD/svg11.dtd">
<!-- Creator: CorelDRAW 2018 (64-Bit) -->
<svg xmlns="http://www.w3.org/2000/svg" xml:space="preserve" width="69.3072mm" height="49.8604mm" version="1.1" style="shape-rendering:geometricPrecision; text-rendering:geometricPrecision; image-rendering:optimizeQuality; fill-rule:evenodd; clip-rule:evenodd"
viewBox="0 0 1174.19 844.72"
 xmlns:xlink="http://www.w3.org/1999/xlink">
 <defs>
  <style type="text/css">
   <![CDATA[
    .fil0 {fill:#2B2A29}
   ]]>
  </style>
 </defs>
 <g id="Katman_x0020_1">
  <metadata id="CorelCorpID_0Corel-Layer"/>
  <path class="fil0" d="M746.46 274.78l55.72 18.75c-16.44,17 -39.31,27.52 -62.39,25.78l6.66 -44.52zm18.24 284.41c46.74,-21.13 89.95,-43.59 124.19,-69.42l20.5 45.11c-34.8,5.78 -59.53,24.97 -62.68,72.93 -23.73,-20.45 -51.64,-35.98 -82.01,-48.62zm105.74 -279.57c-38.28,28.22 -57.96,56.27 -73.46,79.85 -41.51,63.15 -17.22,119.55 -70.94,193.13 79.47,-35.27 149.39,-88.51 215.57,-148.79 -66.45,-20.45 -84.39,-64.68 -71.17,-124.19zm-75.2 -176.8c41.95,-37.56 106.34,-88.39 142.46,-97.24 60.43,-14.81 135.93,-1.32 167.02,55.57 11.44,20.93 19.55,50.44 13.68,90.04 -14.06,94.9 -43.94,234.91 42.76,315.16 0,0 18.75,15.96 11.28,19.77 -7.47,3.81 -28.56,-7.47 -48.48,-26.07 -19.92,-18.6 -75.42,-73.23 -89.48,-179.84 -14.06,-106.61 11.72,-133.56 -18.75,-158.46 -30.46,-24.9 -64.73,-3.22 -83.77,31.05 -12.73,22.91 -11.45,36.92 -16.56,50.25 -23.16,60.47 -201.16,111.33 -161.06,-44.21 7.65,-29.67 18.81,-36.24 40.9,-56.02zm-385.74 456.38c-46.74,-21.13 -89.95,-43.59 -124.19,-69.42l-20.5 45.11c34.8,5.78 59.53,24.97 62.68,72.93 23.73,-20.45 51.64,-35.98 82.01,-48.62zm-105.74 -279.57c38.28,28.22 57.96,56.27 73.46,79.85 41.51,63.15 17.22,119.55 70.94,193.13 -79.47,-35.27 -149.39,-88.51 -215.57,-148.79 66.45,-20.45 84.39,-64.68 71.17,-124.19zm123.98 -4.83l-55.72 18.75c16.44,17 39.31,27.52 62.39,25.78l-6.66 -44.52zm-48.78 -171.97c-41.95,-37.56 -106.34,-88.39 -142.46,-97.24 -60.43,-14.81 -135.93,-1.32 -167.02,55.57 -11.44,20.93 -19.55,50.44 -13.68,90.04 14.06,94.9 43.94,234.91 -42.76,315.16 0,0 -18.75,15.96 -11.28,19.77 7.47,3.81 28.56,-7.47 48.48,-26.07 19.92,-18.6 75.42,-73.23 89.48,-179.84 14.06,-106.61 -11.72,-133.56 18.75,-158.46 30.46,-24.9 64.73,-3.22 83.77,31.05 12.73,22.91 11.45,36.92 16.56,50.25 23.16,60.47 201.16,111.33 161.06,-44.21 -7.65,-29.67 -18.81,-36.24 -40.9,-56.02zm139.9 -11.09l20.79 56.24c5.39,12.62 -4,34.32 -16.99,9.96l-18.45 -42.47c-6.28,-12.55 -18.7,-7.96 -34.56,1.46 -5.11,3.82 -3.43,10.93 -0.15,17.87 14.5,33.73 17.24,64.3 11.42,92.56l-30.46 44.52 0 46.86c43.81,19.86 78.06,46.9 76.87,86.63 -0.15,5.04 0.43,14.84 -5.55,14.42 -2.3,-0.25 -4.05,-4.3 -4.7,-6.81 -7.89,-30.22 -19.33,-44.32 -33.96,-52.5 -6.08,-3.6 -19.38,0.8 -35.6,-8.58 -26.4,-15.28 -3.57,61.07 2.94,64.23 9.06,3.56 4.71,-23.26 11.57,-20.06 21.44,9.9 37.21,21.92 35.59,40.42 -1.5,16.44 -16.28,27.78 -39.61,23.29 -6.35,-0.68 -9.47,29.02 -3.88,37.93 4.59,7.05 23.53,8.76 31.34,24.02 27.39,-28.36 19.48,-49.7 30.75,-51.26 22.02,-1.42 45.35,35.68 32.22,80.55 -9.52,1.37 -19.04,-37.39 -31.63,-44.23l-20.8 28.12c-6.93,10.06 15.35,53.5 -3.22,82.89 40.65,38.18 32.72,87.31 39.01,139.93 3.18,26.61 11.89,53.67 28.46,81.6 2.57,4.34 7.2,9.46 6.95,0.39 -0.86,-31.6 0.39,-56.75 19.9,-60.25 19.51,3.5 20.76,28.65 19.9,60.25 -0.25,9.07 4.38,3.94 6.95,-0.39 16.57,-27.92 25.28,-54.98 28.46,-81.6 6.29,-52.62 -1.64,-101.75 39.01,-139.93 -18.57,-29.39 3.71,-72.83 -3.22,-82.89l-20.8 -28.12c-12.59,6.83 -22.11,45.6 -31.63,44.23 -13.13,-44.86 10.2,-81.96 32.22,-80.55 11.28,1.56 3.37,22.9 30.75,51.26 7.81,-15.26 26.75,-16.96 31.34,-24.02 5.59,-8.91 2.47,-38.61 -3.88,-37.93 -23.34,4.49 -38.12,-6.85 -39.61,-23.29 -1.62,-18.5 14.14,-30.52 35.59,-40.42 6.86,-3.2 2.51,23.63 11.57,20.06 6.51,-3.16 29.34,-79.51 2.94,-64.23 -16.21,9.39 -29.52,4.98 -35.6,8.58 -14.63,8.18 -26.07,22.28 -33.96,52.5 -0.66,2.52 -2.4,6.56 -4.7,6.81 -5.98,0.42 -5.4,-9.38 -5.55,-14.42 -1.19,-39.73 33.06,-66.77 76.87,-86.63l0 -46.86 -30.46 -44.52c-5.81,-28.26 -3.07,-58.83 11.42,-92.56 3.29,-6.94 4.96,-14.05 -0.15,-17.87 -15.87,-9.42 -28.29,-14.01 -34.56,-1.46l-18.45 42.47c-12.99,24.36 -22.38,2.66 -16.99,-9.96l20.79 -56.24c-30.76,-41.72 -105.73,-41.72 -136.49,0zm65.9 116.77l4.69 0c3.38,0 6.15,2.77 6.15,6.15l0 355.15c9.66,11.28 20.57,39.08 20.57,46.97 0,10.12 -19.83,8.61 -19.83,50.56 0,19.07 -1.77,61.04 -10.15,61.07 -8.38,-0.03 -10.15,-42 -10.15,-61.07 0,-41.95 -19.83,-40.44 -19.83,-50.56 0,-8.4 12.35,-39.32 22.4,-48.92l0 -353.2c0,-3.38 2.77,-6.15 6.15,-6.15z"/>
 </g>
</svg>
